<?xml version="1.0" encoding="utf-8" standalone="no"?>
<!DOCTYPE svg PUBLIC "-//W3C//DTD SVG 1.1//EN"
  "http://www.w3.org/Graphics/SVG/1.1/DTD/svg11.dtd">
<!-- Created with matplotlib (https://matplotlib.org/) -->
<svg height="720pt" version="1.1" viewBox="0 0 576 720" width="576pt" xmlns="http://www.w3.org/2000/svg" xmlns:xlink="http://www.w3.org/1999/xlink">
 <metadata>
  <rdf:RDF xmlns:cc="http://creativecommons.org/ns#" xmlns:dc="http://purl.org/dc/elements/1.1/" xmlns:rdf="http://www.w3.org/1999/02/22-rdf-syntax-ns#">
   <cc:Work>
    <dc:type rdf:resource="http://purl.org/dc/dcmitype/StillImage"/>
    <dc:date>2020-12-08T19:02:33.876527</dc:date>
    <dc:format>image/svg+xml</dc:format>
    <dc:creator>
     <cc:Agent>
      <dc:title>Matplotlib v3.3.3, https://matplotlib.org/</dc:title>
     </cc:Agent>
    </dc:creator>
   </cc:Work>
  </rdf:RDF>
 </metadata>
 <defs>
  <style type="text/css">*{stroke-linecap:butt;stroke-linejoin:round;}</style>
 </defs>
 <g id="figure_1">
  <g id="patch_1">
   <path d="M 0 720 
L 576 720 
L 576 0 
L 0 0 
z
" style="fill:#ffffff;"/>
  </g>
  <g id="axes_1">
   <g id="patch_2">
    <path d="M 72 206.921739 
L 518.4 206.921739 
L 518.4 86.4 
L 72 86.4 
z
" style="fill:#ffffff;"/>
   </g>
   <g id="PolyCollection_1">
    <defs>
     <path d="M 72 -513.079458 
L 72 -513.078261 
L 76.509091 -513.078261 
L 81.018182 -513.078261 
L 85.527273 -513.078261 
L 90.036364 -513.078261 
L 94.545455 -513.078261 
L 99.054545 -513.078261 
L 103.563636 -513.078261 
L 108.072727 -513.078261 
L 112.581818 -513.078261 
L 117.090909 -513.078261 
L 121.6 -513.078261 
L 126.109091 -513.078261 
L 130.618182 -513.078261 
L 135.127273 -513.078261 
L 139.636364 -513.078261 
L 144.145455 -513.078261 
L 148.654545 -513.078261 
L 153.163636 -513.078261 
L 157.672727 -513.078261 
L 162.181818 -513.078261 
L 166.690909 -513.078261 
L 171.2 -513.078261 
L 175.709091 -513.078261 
L 180.218182 -513.078261 
L 184.727273 -513.078261 
L 189.236364 -513.078261 
L 193.745455 -513.078261 
L 198.254545 -513.078261 
L 202.763636 -513.078261 
L 207.272727 -513.078261 
L 211.781818 -513.078261 
L 216.290909 -513.078261 
L 220.8 -513.078261 
L 225.309091 -513.078261 
L 229.818182 -513.078261 
L 234.327273 -513.078261 
L 238.836364 -513.078261 
L 243.345455 -513.078261 
L 247.854545 -513.078261 
L 252.363636 -513.078261 
L 256.872727 -513.078261 
L 261.381818 -513.078261 
L 265.890909 -513.078261 
L 270.4 -513.078261 
L 274.909091 -513.078261 
L 279.418182 -513.078261 
L 283.927273 -513.078261 
L 288.436364 -513.078261 
L 292.945455 -513.078261 
L 297.454545 -513.078261 
L 301.963636 -513.078261 
L 306.472727 -513.078261 
L 310.981818 -513.078261 
L 315.490909 -513.078261 
L 320 -513.078261 
L 324.509091 -513.078261 
L 329.018182 -513.078261 
L 333.527273 -513.078261 
L 338.036364 -513.078261 
L 342.545455 -513.078261 
L 347.054545 -513.078261 
L 351.563636 -513.078261 
L 356.072727 -513.078261 
L 360.581818 -513.078261 
L 365.090909 -513.078261 
L 369.6 -513.078261 
L 374.109091 -513.078261 
L 378.618182 -513.078261 
L 383.127273 -513.078261 
L 387.636364 -513.078261 
L 392.145455 -513.078261 
L 396.654545 -513.078261 
L 401.163636 -513.078261 
L 405.672727 -513.078261 
L 410.181818 -513.078261 
L 414.690909 -513.078261 
L 419.2 -513.078261 
L 423.709091 -513.078261 
L 428.218182 -513.078261 
L 432.727273 -513.078261 
L 437.236364 -513.078261 
L 441.745455 -513.078261 
L 446.254545 -513.078261 
L 450.763636 -513.078261 
L 455.272727 -513.078261 
L 459.781818 -513.078261 
L 464.290909 -513.078261 
L 468.8 -513.078261 
L 473.309091 -513.078261 
L 477.818182 -513.078261 
L 482.327273 -513.078261 
L 486.836364 -513.078261 
L 491.345455 -513.078261 
L 495.854545 -513.078261 
L 500.363636 -513.078261 
L 504.872727 -513.078261 
L 509.381818 -513.078261 
L 513.890909 -513.078261 
L 518.4 -513.078261 
L 518.4 -513.078261 
L 518.4 -513.078261 
L 513.890909 -513.078261 
L 509.381818 -513.078261 
L 504.872727 -513.078261 
L 500.363636 -513.078261 
L 495.854545 -513.078261 
L 491.345455 -513.078261 
L 486.836364 -513.078261 
L 482.327273 -513.078261 
L 477.818182 -513.078261 
L 473.309091 -513.078261 
L 468.8 -513.078261 
L 464.290909 -513.078261 
L 459.781818 -513.078261 
L 455.272727 -513.078261 
L 450.763636 -513.078261 
L 446.254545 -513.078261 
L 441.745455 -513.078261 
L 437.236364 -513.078261 
L 432.727273 -513.078261 
L 428.218182 -513.078261 
L 423.709091 -513.078261 
L 419.2 -513.078261 
L 414.690909 -513.078261 
L 410.181818 -513.078261 
L 405.672727 -513.078261 
L 401.163636 -513.078261 
L 396.654545 -513.078261 
L 392.145455 -513.078261 
L 387.636364 -513.078261 
L 383.127273 -513.078261 
L 378.618182 -513.078261 
L 374.109091 -513.078261 
L 369.6 -513.078261 
L 365.090909 -513.078261 
L 360.581818 -513.078261 
L 356.072727 -513.078261 
L 351.563636 -513.078261 
L 347.054545 -513.078261 
L 342.545455 -513.078261 
L 338.036364 -513.078261 
L 333.527273 -513.078261 
L 329.018182 -513.078261 
L 324.509091 -513.078261 
L 320 -513.078261 
L 315.490909 -513.078263 
L 310.981818 -513.078267 
L 306.472727 -513.07828 
L 301.963636 -513.078317 
L 297.454545 -513.078423 
L 292.945455 -513.07871 
L 288.436364 -513.079458 
L 283.927273 -513.081324 
L 279.418182 -513.085796 
L 274.909091 -513.096068 
L 270.4 -513.118691 
L 265.890909 -513.166459 
L 261.381818 -513.263118 
L 256.872727 -513.450518 
L 252.363636 -513.798502 
L 247.854545 -514.417136 
L 243.345455 -515.469544 
L 238.836364 -517.18172 
L 234.327273 -519.843721 
L 229.818182 -523.79525 
L 225.309091 -529.389104 
L 220.8 -536.929356 
L 216.290909 -546.587801 
L 211.781818 -558.311408 
L 207.272727 -571.742491 
L 202.763636 -586.178392 
L 198.254545 -600.595004 
L 193.745455 -613.746481 
L 189.236364 -624.333846 
L 184.727273 -631.213511 
L 180.218182 -633.6 
L 175.709091 -631.213511 
L 171.2 -624.333846 
L 166.690909 -613.746481 
L 162.181818 -600.595004 
L 157.672727 -586.178392 
L 153.163636 -571.742491 
L 148.654545 -558.311408 
L 144.145455 -546.587801 
L 139.636364 -536.929356 
L 135.127273 -529.389104 
L 130.618182 -523.79525 
L 126.109091 -519.843721 
L 121.6 -517.18172 
L 117.090909 -515.469544 
L 112.581818 -514.417136 
L 108.072727 -513.798502 
L 103.563636 -513.450518 
L 99.054545 -513.263118 
L 94.545455 -513.166459 
L 90.036364 -513.118691 
L 85.527273 -513.096068 
L 81.018182 -513.085796 
L 76.509091 -513.081324 
L 72 -513.079458 
z
" id="m3ab1456935" style="stroke:#0000ff;stroke-opacity:0.4;"/>
    </defs>
    <g clip-path="url(#p190a8791f1)">
     <use style="fill:#0000ff;fill-opacity:0.4;stroke:#0000ff;stroke-opacity:0.4;" x="0" xlink:href="#m3ab1456935" y="720"/>
    </g>
   </g>
   <g id="matplotlib.axis_1">
    <g id="xtick_1">
     <g id="line2d_1">
      <path clip-path="url(#p190a8791f1)" d="M 180.218182 206.921739 
L 180.218182 86.4 
" style="fill:none;stroke:#b0b0b0;stroke-linecap:square;stroke-width:0.8;"/>
     </g>
     <g id="line2d_2">
      <defs>
       <path d="M 0 0 
L 0 3.5 
" id="m44839b530f" style="stroke:#000000;stroke-width:0.8;"/>
      </defs>
      <g>
       <use style="stroke:#000000;stroke-width:0.8;" x="180.218182" xlink:href="#m44839b530f" y="206.921739"/>
      </g>
     </g>
    </g>
    <g id="xtick_2">
     <g id="line2d_3">
      <path clip-path="url(#p190a8791f1)" d="M 292.945455 206.921739 
L 292.945455 86.4 
" style="fill:none;stroke:#b0b0b0;stroke-linecap:square;stroke-width:0.8;"/>
     </g>
     <g id="line2d_4">
      <g>
       <use style="stroke:#000000;stroke-width:0.8;" x="292.945455" xlink:href="#m44839b530f" y="206.921739"/>
      </g>
     </g>
    </g>
    <g id="xtick_3">
     <g id="line2d_5">
      <path clip-path="url(#p190a8791f1)" d="M 405.672727 206.921739 
L 405.672727 86.4 
" style="fill:none;stroke:#b0b0b0;stroke-linecap:square;stroke-width:0.8;"/>
     </g>
     <g id="line2d_6">
      <g>
       <use style="stroke:#000000;stroke-width:0.8;" x="405.672727" xlink:href="#m44839b530f" y="206.921739"/>
      </g>
     </g>
    </g>
    <g id="xtick_4">
     <g id="line2d_7">
      <path clip-path="url(#p190a8791f1)" d="M 518.4 206.921739 
L 518.4 86.4 
" style="fill:none;stroke:#b0b0b0;stroke-linecap:square;stroke-width:0.8;"/>
     </g>
     <g id="line2d_8">
      <g>
       <use style="stroke:#000000;stroke-width:0.8;" x="518.4" xlink:href="#m44839b530f" y="206.921739"/>
      </g>
     </g>
    </g>
   </g>
   <g id="matplotlib.axis_2">
    <g id="ytick_1">
     <g id="line2d_9">
      <path clip-path="url(#p190a8791f1)" d="M 72 206.921739 
L 518.4 206.921739 
" style="fill:none;stroke:#b0b0b0;stroke-linecap:square;stroke-width:0.8;"/>
     </g>
     <g id="line2d_10">
      <defs>
       <path d="M 0 0 
L -3.5 0 
" id="me5d79111a9" style="stroke:#000000;stroke-width:0.8;"/>
      </defs>
      <g>
       <use style="stroke:#000000;stroke-width:0.8;" x="72" xlink:href="#me5d79111a9" y="206.921739"/>
      </g>
     </g>
     <g id="text_1">
      <!-- 0.00 -->
      <g transform="translate(29.375 213.000489)scale(0.16 -0.16)">
       <defs>
        <path d="M 31.78125 66.40625 
Q 24.171875 66.40625 20.328125 58.90625 
Q 16.5 51.421875 16.5 36.375 
Q 16.5 21.390625 20.328125 13.890625 
Q 24.171875 6.390625 31.78125 6.390625 
Q 39.453125 6.390625 43.28125 13.890625 
Q 47.125 21.390625 47.125 36.375 
Q 47.125 51.421875 43.28125 58.90625 
Q 39.453125 66.40625 31.78125 66.40625 
z
M 31.78125 74.21875 
Q 44.046875 74.21875 50.515625 64.515625 
Q 56.984375 54.828125 56.984375 36.375 
Q 56.984375 17.96875 50.515625 8.265625 
Q 44.046875 -1.421875 31.78125 -1.421875 
Q 19.53125 -1.421875 13.0625 8.265625 
Q 6.59375 17.96875 6.59375 36.375 
Q 6.59375 54.828125 13.0625 64.515625 
Q 19.53125 74.21875 31.78125 74.21875 
z
" id="DejaVuSans-48"/>
        <path d="M 10.6875 12.40625 
L 21 12.40625 
L 21 0 
L 10.6875 0 
z
" id="DejaVuSans-46"/>
       </defs>
       <use xlink:href="#DejaVuSans-48"/>
       <use x="63.623047" xlink:href="#DejaVuSans-46"/>
       <use x="95.410156" xlink:href="#DejaVuSans-48"/>
       <use x="159.033203" xlink:href="#DejaVuSans-48"/>
      </g>
     </g>
    </g>
    <g id="ytick_2">
     <g id="line2d_11">
      <path clip-path="url(#p190a8791f1)" d="M 72 176.791304 
L 518.4 176.791304 
" style="fill:none;stroke:#b0b0b0;stroke-linecap:square;stroke-width:0.8;"/>
     </g>
     <g id="line2d_12">
      <g>
       <use style="stroke:#000000;stroke-width:0.8;" x="72" xlink:href="#me5d79111a9" y="176.791304"/>
      </g>
     </g>
     <g id="text_2">
      <!-- 0.25 -->
      <g transform="translate(29.375 182.870054)scale(0.16 -0.16)">
       <defs>
        <path d="M 19.1875 8.296875 
L 53.609375 8.296875 
L 53.609375 0 
L 7.328125 0 
L 7.328125 8.296875 
Q 12.9375 14.109375 22.625 23.890625 
Q 32.328125 33.6875 34.8125 36.53125 
Q 39.546875 41.84375 41.421875 45.53125 
Q 43.3125 49.21875 43.3125 52.78125 
Q 43.3125 58.59375 39.234375 62.25 
Q 35.15625 65.921875 28.609375 65.921875 
Q 23.96875 65.921875 18.8125 64.3125 
Q 13.671875 62.703125 7.8125 59.421875 
L 7.8125 69.390625 
Q 13.765625 71.78125 18.9375 73 
Q 24.125 74.21875 28.421875 74.21875 
Q 39.75 74.21875 46.484375 68.546875 
Q 53.21875 62.890625 53.21875 53.421875 
Q 53.21875 48.921875 51.53125 44.890625 
Q 49.859375 40.875 45.40625 35.40625 
Q 44.1875 33.984375 37.640625 27.21875 
Q 31.109375 20.453125 19.1875 8.296875 
z
" id="DejaVuSans-50"/>
        <path d="M 10.796875 72.90625 
L 49.515625 72.90625 
L 49.515625 64.59375 
L 19.828125 64.59375 
L 19.828125 46.734375 
Q 21.96875 47.46875 24.109375 47.828125 
Q 26.265625 48.1875 28.421875 48.1875 
Q 40.625 48.1875 47.75 41.5 
Q 54.890625 34.8125 54.890625 23.390625 
Q 54.890625 11.625 47.5625 5.09375 
Q 40.234375 -1.421875 26.90625 -1.421875 
Q 22.3125 -1.421875 17.546875 -0.640625 
Q 12.796875 0.140625 7.71875 1.703125 
L 7.71875 11.625 
Q 12.109375 9.234375 16.796875 8.0625 
Q 21.484375 6.890625 26.703125 6.890625 
Q 35.15625 6.890625 40.078125 11.328125 
Q 45.015625 15.765625 45.015625 23.390625 
Q 45.015625 31 40.078125 35.4375 
Q 35.15625 39.890625 26.703125 39.890625 
Q 22.75 39.890625 18.8125 39.015625 
Q 14.890625 38.140625 10.796875 36.28125 
z
" id="DejaVuSans-53"/>
       </defs>
       <use xlink:href="#DejaVuSans-48"/>
       <use x="63.623047" xlink:href="#DejaVuSans-46"/>
       <use x="95.410156" xlink:href="#DejaVuSans-50"/>
       <use x="159.033203" xlink:href="#DejaVuSans-53"/>
      </g>
     </g>
    </g>
    <g id="ytick_3">
     <g id="line2d_13">
      <path clip-path="url(#p190a8791f1)" d="M 72 146.66087 
L 518.4 146.66087 
" style="fill:none;stroke:#b0b0b0;stroke-linecap:square;stroke-width:0.8;"/>
     </g>
     <g id="line2d_14">
      <g>
       <use style="stroke:#000000;stroke-width:0.8;" x="72" xlink:href="#me5d79111a9" y="146.66087"/>
      </g>
     </g>
     <g id="text_3">
      <!-- 0.50 -->
      <g transform="translate(29.375 152.73962)scale(0.16 -0.16)">
       <use xlink:href="#DejaVuSans-48"/>
       <use x="63.623047" xlink:href="#DejaVuSans-46"/>
       <use x="95.410156" xlink:href="#DejaVuSans-53"/>
       <use x="159.033203" xlink:href="#DejaVuSans-48"/>
      </g>
     </g>
    </g>
    <g id="ytick_4">
     <g id="line2d_15">
      <path clip-path="url(#p190a8791f1)" d="M 72 116.530435 
L 518.4 116.530435 
" style="fill:none;stroke:#b0b0b0;stroke-linecap:square;stroke-width:0.8;"/>
     </g>
     <g id="line2d_16">
      <g>
       <use style="stroke:#000000;stroke-width:0.8;" x="72" xlink:href="#me5d79111a9" y="116.530435"/>
      </g>
     </g>
     <g id="text_4">
      <!-- 0.75 -->
      <g transform="translate(29.375 122.609185)scale(0.16 -0.16)">
       <defs>
        <path d="M 8.203125 72.90625 
L 55.078125 72.90625 
L 55.078125 68.703125 
L 28.609375 0 
L 18.3125 0 
L 43.21875 64.59375 
L 8.203125 64.59375 
z
" id="DejaVuSans-55"/>
       </defs>
       <use xlink:href="#DejaVuSans-48"/>
       <use x="63.623047" xlink:href="#DejaVuSans-46"/>
       <use x="95.410156" xlink:href="#DejaVuSans-55"/>
       <use x="159.033203" xlink:href="#DejaVuSans-53"/>
      </g>
     </g>
    </g>
    <g id="ytick_5">
     <g id="line2d_17">
      <path clip-path="url(#p190a8791f1)" d="M 72 86.4 
L 518.4 86.4 
" style="fill:none;stroke:#b0b0b0;stroke-linecap:square;stroke-width:0.8;"/>
     </g>
     <g id="line2d_18">
      <g>
       <use style="stroke:#000000;stroke-width:0.8;" x="72" xlink:href="#me5d79111a9" y="86.4"/>
      </g>
     </g>
     <g id="text_5">
      <!-- 1.00 -->
      <g transform="translate(29.375 92.47875)scale(0.16 -0.16)">
       <defs>
        <path d="M 12.40625 8.296875 
L 28.515625 8.296875 
L 28.515625 63.921875 
L 10.984375 60.40625 
L 10.984375 69.390625 
L 28.421875 72.90625 
L 38.28125 72.90625 
L 38.28125 8.296875 
L 54.390625 8.296875 
L 54.390625 0 
L 12.40625 0 
z
" id="DejaVuSans-49"/>
       </defs>
       <use xlink:href="#DejaVuSans-49"/>
       <use x="63.623047" xlink:href="#DejaVuSans-46"/>
       <use x="95.410156" xlink:href="#DejaVuSans-48"/>
       <use x="159.033203" xlink:href="#DejaVuSans-48"/>
      </g>
     </g>
    </g>
    <g id="text_6">
     <!-- Height -->
     <g transform="translate(22.0475 173.10712)rotate(-90)scale(0.16 -0.16)">
      <defs>
       <path d="M 9.8125 72.90625 
L 19.671875 72.90625 
L 19.671875 43.015625 
L 55.515625 43.015625 
L 55.515625 72.90625 
L 65.375 72.90625 
L 65.375 0 
L 55.515625 0 
L 55.515625 34.71875 
L 19.671875 34.71875 
L 19.671875 0 
L 9.8125 0 
z
" id="DejaVuSans-72"/>
       <path d="M 56.203125 29.59375 
L 56.203125 25.203125 
L 14.890625 25.203125 
Q 15.484375 15.921875 20.484375 11.0625 
Q 25.484375 6.203125 34.421875 6.203125 
Q 39.59375 6.203125 44.453125 7.46875 
Q 49.3125 8.734375 54.109375 11.28125 
L 54.109375 2.78125 
Q 49.265625 0.734375 44.1875 -0.34375 
Q 39.109375 -1.421875 33.890625 -1.421875 
Q 20.796875 -1.421875 13.15625 6.1875 
Q 5.515625 13.8125 5.515625 26.8125 
Q 5.515625 40.234375 12.765625 48.109375 
Q 20.015625 56 32.328125 56 
Q 43.359375 56 49.78125 48.890625 
Q 56.203125 41.796875 56.203125 29.59375 
z
M 47.21875 32.234375 
Q 47.125 39.59375 43.09375 43.984375 
Q 39.0625 48.390625 32.421875 48.390625 
Q 24.90625 48.390625 20.390625 44.140625 
Q 15.875 39.890625 15.1875 32.171875 
z
" id="DejaVuSans-101"/>
       <path d="M 9.421875 54.6875 
L 18.40625 54.6875 
L 18.40625 0 
L 9.421875 0 
z
M 9.421875 75.984375 
L 18.40625 75.984375 
L 18.40625 64.59375 
L 9.421875 64.59375 
z
" id="DejaVuSans-105"/>
       <path d="M 45.40625 27.984375 
Q 45.40625 37.75 41.375 43.109375 
Q 37.359375 48.484375 30.078125 48.484375 
Q 22.859375 48.484375 18.828125 43.109375 
Q 14.796875 37.75 14.796875 27.984375 
Q 14.796875 18.265625 18.828125 12.890625 
Q 22.859375 7.515625 30.078125 7.515625 
Q 37.359375 7.515625 41.375 12.890625 
Q 45.40625 18.265625 45.40625 27.984375 
z
M 54.390625 6.78125 
Q 54.390625 -7.171875 48.1875 -13.984375 
Q 42 -20.796875 29.203125 -20.796875 
Q 24.46875 -20.796875 20.265625 -20.09375 
Q 16.0625 -19.390625 12.109375 -17.921875 
L 12.109375 -9.1875 
Q 16.0625 -11.328125 19.921875 -12.34375 
Q 23.78125 -13.375 27.78125 -13.375 
Q 36.625 -13.375 41.015625 -8.765625 
Q 45.40625 -4.15625 45.40625 5.171875 
L 45.40625 9.625 
Q 42.625 4.78125 38.28125 2.390625 
Q 33.9375 0 27.875 0 
Q 17.828125 0 11.671875 7.65625 
Q 5.515625 15.328125 5.515625 27.984375 
Q 5.515625 40.671875 11.671875 48.328125 
Q 17.828125 56 27.875 56 
Q 33.9375 56 38.28125 53.609375 
Q 42.625 51.21875 45.40625 46.390625 
L 45.40625 54.6875 
L 54.390625 54.6875 
z
" id="DejaVuSans-103"/>
       <path d="M 54.890625 33.015625 
L 54.890625 0 
L 45.90625 0 
L 45.90625 32.71875 
Q 45.90625 40.484375 42.875 44.328125 
Q 39.84375 48.1875 33.796875 48.1875 
Q 26.515625 48.1875 22.3125 43.546875 
Q 18.109375 38.921875 18.109375 30.90625 
L 18.109375 0 
L 9.078125 0 
L 9.078125 75.984375 
L 18.109375 75.984375 
L 18.109375 46.1875 
Q 21.34375 51.125 25.703125 53.5625 
Q 30.078125 56 35.796875 56 
Q 45.21875 56 50.046875 50.171875 
Q 54.890625 44.34375 54.890625 33.015625 
z
" id="DejaVuSans-104"/>
       <path d="M 18.3125 70.21875 
L 18.3125 54.6875 
L 36.8125 54.6875 
L 36.8125 47.703125 
L 18.3125 47.703125 
L 18.3125 18.015625 
Q 18.3125 11.328125 20.140625 9.421875 
Q 21.96875 7.515625 27.59375 7.515625 
L 36.8125 7.515625 
L 36.8125 0 
L 27.59375 0 
Q 17.1875 0 13.234375 3.875 
Q 9.28125 7.765625 9.28125 18.015625 
L 9.28125 47.703125 
L 2.6875 47.703125 
L 2.6875 54.6875 
L 9.28125 54.6875 
L 9.28125 70.21875 
z
" id="DejaVuSans-116"/>
      </defs>
      <use xlink:href="#DejaVuSans-72"/>
      <use x="75.195312" xlink:href="#DejaVuSans-101"/>
      <use x="136.71875" xlink:href="#DejaVuSans-105"/>
      <use x="164.501953" xlink:href="#DejaVuSans-103"/>
      <use x="227.978516" xlink:href="#DejaVuSans-104"/>
      <use x="291.357422" xlink:href="#DejaVuSans-116"/>
     </g>
    </g>
   </g>
   <g id="line2d_19">
    <path clip-path="url(#p190a8791f1)" d="M 72 206.920542 
L 76.509091 206.918676 
L 81.018182 206.914204 
L 85.527273 206.903932 
L 90.036364 206.881309 
L 94.545455 206.833541 
L 99.054545 206.736882 
L 103.563636 206.549482 
L 108.072727 206.201498 
L 112.581818 205.582864 
L 117.090909 204.530456 
L 121.6 202.81828 
L 126.109091 200.156279 
L 130.618182 196.20475 
L 135.127273 190.610896 
L 139.636364 183.070644 
L 144.145455 173.412199 
L 148.654545 161.688592 
L 153.163636 148.257509 
L 157.672727 133.821608 
L 162.181818 119.404996 
L 166.690909 106.253519 
L 171.2 95.666154 
L 175.709091 88.786489 
L 180.218182 86.4 
L 184.727273 88.786489 
L 189.236364 95.666154 
L 193.745455 106.253519 
L 198.254545 119.404996 
L 202.763636 133.821608 
L 207.272727 148.257509 
L 211.781818 161.688592 
L 216.290909 173.412199 
L 220.8 183.070644 
L 225.309091 190.610896 
L 229.818182 196.20475 
L 234.327273 200.156279 
L 238.836364 202.81828 
L 243.345455 204.530456 
L 247.854545 205.582864 
L 252.363636 206.201498 
L 256.872727 206.549482 
L 261.381818 206.736882 
L 265.890909 206.833541 
L 270.4 206.881309 
L 274.909091 206.903932 
L 279.418182 206.914204 
L 283.927273 206.918676 
L 288.436364 206.920542 
L 292.945455 206.92129 
L 297.454545 206.921577 
L 301.963636 206.921683 
L 306.472727 206.92172 
L 310.981818 206.921733 
L 315.490909 206.921737 
L 320 206.921739 
L 324.509091 206.921739 
L 329.018182 206.921739 
L 333.527273 206.921739 
L 338.036364 206.921739 
L 342.545455 206.921739 
L 347.054545 206.921739 
L 351.563636 206.921739 
L 356.072727 206.921739 
L 360.581818 206.921739 
L 365.090909 206.921739 
L 369.6 206.921739 
L 374.109091 206.921739 
L 378.618182 206.921739 
L 383.127273 206.921739 
L 387.636364 206.921739 
L 392.145455 206.921739 
L 396.654545 206.921739 
L 401.163636 206.921739 
L 405.672727 206.921739 
L 410.181818 206.921739 
L 414.690909 206.921739 
L 419.2 206.921739 
L 423.709091 206.921739 
L 428.218182 206.921739 
L 432.727273 206.921739 
L 437.236364 206.921739 
L 441.745455 206.921739 
L 446.254545 206.921739 
L 450.763636 206.921739 
L 455.272727 206.921739 
L 459.781818 206.921739 
L 464.290909 206.921739 
L 468.8 206.921739 
L 473.309091 206.921739 
L 477.818182 206.921739 
L 482.327273 206.921739 
L 486.836364 206.921739 
L 491.345455 206.921739 
L 495.854545 206.921739 
L 500.363636 206.921739 
L 504.872727 206.921739 
L 509.381818 206.921739 
L 513.890909 206.921739 
L 518.4 206.921739 
" style="fill:none;stroke:#0000ff;stroke-linecap:square;stroke-width:1.5;"/>
   </g>
   <g id="patch_3">
    <path d="M 72 206.921739 
L 72 86.4 
" style="fill:none;stroke:#000000;stroke-linecap:square;stroke-linejoin:miter;stroke-width:0.8;"/>
   </g>
   <g id="patch_4">
    <path d="M 518.4 206.921739 
L 518.4 86.4 
" style="fill:none;stroke:#000000;stroke-linecap:square;stroke-linejoin:miter;stroke-width:0.8;"/>
   </g>
   <g id="patch_5">
    <path d="M 72 206.921739 
L 518.4 206.921739 
" style="fill:none;stroke:#000000;stroke-linecap:square;stroke-linejoin:miter;stroke-width:0.8;"/>
   </g>
   <g id="patch_6">
    <path d="M 72 86.4 
L 518.4 86.4 
" style="fill:none;stroke:#000000;stroke-linecap:square;stroke-linejoin:miter;stroke-width:0.8;"/>
   </g>
   <g id="text_7">
    <!-- Time step   0 -->
    <g transform="translate(232.6335 80.4)scale(0.192 -0.192)">
     <defs>
      <path d="M -0.296875 72.90625 
L 61.375 72.90625 
L 61.375 64.59375 
L 35.5 64.59375 
L 35.5 0 
L 25.59375 0 
L 25.59375 64.59375 
L -0.296875 64.59375 
z
" id="DejaVuSans-84"/>
      <path d="M 52 44.1875 
Q 55.375 50.25 60.0625 53.125 
Q 64.75 56 71.09375 56 
Q 79.640625 56 84.28125 50.015625 
Q 88.921875 44.046875 88.921875 33.015625 
L 88.921875 0 
L 79.890625 0 
L 79.890625 32.71875 
Q 79.890625 40.578125 77.09375 44.375 
Q 74.3125 48.1875 68.609375 48.1875 
Q 61.625 48.1875 57.5625 43.546875 
Q 53.515625 38.921875 53.515625 30.90625 
L 53.515625 0 
L 44.484375 0 
L 44.484375 32.71875 
Q 44.484375 40.625 41.703125 44.40625 
Q 38.921875 48.1875 33.109375 48.1875 
Q 26.21875 48.1875 22.15625 43.53125 
Q 18.109375 38.875 18.109375 30.90625 
L 18.109375 0 
L 9.078125 0 
L 9.078125 54.6875 
L 18.109375 54.6875 
L 18.109375 46.1875 
Q 21.1875 51.21875 25.484375 53.609375 
Q 29.78125 56 35.6875 56 
Q 41.65625 56 45.828125 52.96875 
Q 50 49.953125 52 44.1875 
z
" id="DejaVuSans-109"/>
      <path id="DejaVuSans-32"/>
      <path d="M 44.28125 53.078125 
L 44.28125 44.578125 
Q 40.484375 46.53125 36.375 47.5 
Q 32.28125 48.484375 27.875 48.484375 
Q 21.1875 48.484375 17.84375 46.4375 
Q 14.5 44.390625 14.5 40.28125 
Q 14.5 37.15625 16.890625 35.375 
Q 19.28125 33.59375 26.515625 31.984375 
L 29.59375 31.296875 
Q 39.15625 29.25 43.1875 25.515625 
Q 47.21875 21.78125 47.21875 15.09375 
Q 47.21875 7.46875 41.1875 3.015625 
Q 35.15625 -1.421875 24.609375 -1.421875 
Q 20.21875 -1.421875 15.453125 -0.5625 
Q 10.6875 0.296875 5.421875 2 
L 5.421875 11.28125 
Q 10.40625 8.6875 15.234375 7.390625 
Q 20.0625 6.109375 24.8125 6.109375 
Q 31.15625 6.109375 34.5625 8.28125 
Q 37.984375 10.453125 37.984375 14.40625 
Q 37.984375 18.0625 35.515625 20.015625 
Q 33.0625 21.96875 24.703125 23.78125 
L 21.578125 24.515625 
Q 13.234375 26.265625 9.515625 29.90625 
Q 5.8125 33.546875 5.8125 39.890625 
Q 5.8125 47.609375 11.28125 51.796875 
Q 16.75 56 26.8125 56 
Q 31.78125 56 36.171875 55.265625 
Q 40.578125 54.546875 44.28125 53.078125 
z
" id="DejaVuSans-115"/>
      <path d="M 18.109375 8.203125 
L 18.109375 -20.796875 
L 9.078125 -20.796875 
L 9.078125 54.6875 
L 18.109375 54.6875 
L 18.109375 46.390625 
Q 20.953125 51.265625 25.265625 53.625 
Q 29.59375 56 35.59375 56 
Q 45.5625 56 51.78125 48.09375 
Q 58.015625 40.1875 58.015625 27.296875 
Q 58.015625 14.40625 51.78125 6.484375 
Q 45.5625 -1.421875 35.59375 -1.421875 
Q 29.59375 -1.421875 25.265625 0.953125 
Q 20.953125 3.328125 18.109375 8.203125 
z
M 48.6875 27.296875 
Q 48.6875 37.203125 44.609375 42.84375 
Q 40.53125 48.484375 33.40625 48.484375 
Q 26.265625 48.484375 22.1875 42.84375 
Q 18.109375 37.203125 18.109375 27.296875 
Q 18.109375 17.390625 22.1875 11.75 
Q 26.265625 6.109375 33.40625 6.109375 
Q 40.53125 6.109375 44.609375 11.75 
Q 48.6875 17.390625 48.6875 27.296875 
z
" id="DejaVuSans-112"/>
     </defs>
     <use xlink:href="#DejaVuSans-84"/>
     <use x="57.958984" xlink:href="#DejaVuSans-105"/>
     <use x="85.742188" xlink:href="#DejaVuSans-109"/>
     <use x="183.154297" xlink:href="#DejaVuSans-101"/>
     <use x="244.677734" xlink:href="#DejaVuSans-32"/>
     <use x="276.464844" xlink:href="#DejaVuSans-115"/>
     <use x="328.564453" xlink:href="#DejaVuSans-116"/>
     <use x="367.773438" xlink:href="#DejaVuSans-101"/>
     <use x="429.296875" xlink:href="#DejaVuSans-112"/>
     <use x="492.773438" xlink:href="#DejaVuSans-32"/>
     <use x="524.560547" xlink:href="#DejaVuSans-32"/>
     <use x="556.347656" xlink:href="#DejaVuSans-32"/>
     <use x="588.134766" xlink:href="#DejaVuSans-48"/>
    </g>
   </g>
  </g>
  <g id="axes_2">
   <g id="patch_7">
    <path d="M 72 351.547826 
L 518.4 351.547826 
L 518.4 231.026087 
L 72 231.026087 
z
" style="fill:#ffffff;"/>
   </g>
   <g id="PolyCollection_2">
    <defs>
     <path d="M 72 -368.452174 
L 72 -368.452174 
L 76.509091 -368.452174 
L 81.018182 -368.452174 
L 85.527273 -368.452174 
L 90.036364 -368.452174 
L 94.545455 -368.452174 
L 99.054545 -368.452174 
L 103.563636 -368.452174 
L 108.072727 -368.452174 
L 112.581818 -368.452174 
L 117.090909 -368.452174 
L 121.6 -368.452174 
L 126.109091 -368.452174 
L 130.618182 -368.452174 
L 135.127273 -368.452174 
L 139.636364 -368.452174 
L 144.145455 -368.452174 
L 148.654545 -368.452174 
L 153.163636 -368.452174 
L 157.672727 -368.452174 
L 162.181818 -368.452174 
L 166.690909 -368.452174 
L 171.2 -368.452174 
L 175.709091 -368.452174 
L 180.218182 -368.452174 
L 184.727273 -368.452174 
L 189.236364 -368.452174 
L 193.745455 -368.452174 
L 198.254545 -368.452174 
L 202.763636 -368.452174 
L 207.272727 -368.452174 
L 211.781818 -368.452174 
L 216.290909 -368.452174 
L 220.8 -368.452174 
L 225.309091 -368.452174 
L 229.818182 -368.452174 
L 234.327273 -368.452174 
L 238.836364 -368.452174 
L 243.345455 -368.452174 
L 247.854545 -368.452174 
L 252.363636 -368.452174 
L 256.872727 -368.452174 
L 261.381818 -368.452174 
L 265.890909 -368.452174 
L 270.4 -368.452174 
L 274.909091 -368.452174 
L 279.418182 -368.452174 
L 283.927273 -368.452174 
L 288.436364 -368.452174 
L 292.945455 -368.452174 
L 297.454545 -368.452174 
L 301.963636 -368.452174 
L 306.472727 -368.452174 
L 310.981818 -368.452174 
L 315.490909 -368.452174 
L 320 -368.452174 
L 324.509091 -368.452174 
L 329.018182 -368.452174 
L 333.527273 -368.452174 
L 338.036364 -368.452174 
L 342.545455 -368.452174 
L 347.054545 -368.452174 
L 351.563636 -368.452174 
L 356.072727 -368.452174 
L 360.581818 -368.452174 
L 365.090909 -368.452174 
L 369.6 -368.452174 
L 374.109091 -368.452174 
L 378.618182 -368.452174 
L 383.127273 -368.452174 
L 387.636364 -368.452174 
L 392.145455 -368.452174 
L 396.654545 -368.452174 
L 401.163636 -368.452174 
L 405.672727 -368.452174 
L 410.181818 -368.452174 
L 414.690909 -368.452174 
L 419.2 -368.452174 
L 423.709091 -368.452174 
L 428.218182 -368.452174 
L 432.727273 -368.452174 
L 437.236364 -368.452174 
L 441.745455 -368.452174 
L 446.254545 -368.452174 
L 450.763636 -368.452174 
L 455.272727 -368.452174 
L 459.781818 -368.452174 
L 464.290909 -368.452174 
L 468.8 -368.452174 
L 473.309091 -368.452174 
L 477.818182 -368.452174 
L 482.327273 -368.452174 
L 486.836364 -368.452174 
L 491.345455 -368.452174 
L 495.854545 -368.452174 
L 500.363636 -368.452174 
L 504.872727 -368.452174 
L 509.381818 -368.452174 
L 513.890909 -368.452174 
L 518.4 -368.452174 
L 518.4 -368.452174 
L 518.4 -368.452174 
L 513.890909 -368.452174 
L 509.381818 -368.452174 
L 504.872727 -368.452174 
L 500.363636 -368.452174 
L 495.854545 -368.452174 
L 491.345455 -368.452174 
L 486.836364 -368.452174 
L 482.327273 -368.452174 
L 477.818182 -368.452174 
L 473.309091 -368.452174 
L 468.8 -368.452174 
L 464.290909 -368.452174 
L 459.781818 -368.452174 
L 455.272727 -368.452174 
L 450.763636 -368.452174 
L 446.254545 -368.452174 
L 441.745455 -368.452174 
L 437.236364 -368.452174 
L 432.727273 -368.452174 
L 428.218182 -368.452176 
L 423.709091 -368.45218 
L 419.2 -368.452193 
L 414.690909 -368.45223 
L 410.181818 -368.452336 
L 405.672727 -368.452623 
L 401.163636 -368.453371 
L 396.654545 -368.455237 
L 392.145455 -368.459709 
L 387.636364 -368.469981 
L 383.127273 -368.492604 
L 378.618182 -368.540372 
L 374.109091 -368.637031 
L 369.6 -368.824431 
L 365.090909 -369.172415 
L 360.581818 -369.791049 
L 356.072727 -370.843457 
L 351.563636 -372.555633 
L 347.054545 -375.217634 
L 342.545455 -379.169163 
L 338.036364 -384.763017 
L 333.527273 -392.30327 
L 329.018182 -401.961714 
L 324.509091 -413.685321 
L 320 -427.116404 
L 315.490909 -441.552305 
L 310.981818 -455.968917 
L 306.472727 -469.120394 
L 301.963636 -479.707759 
L 297.454545 -486.587424 
L 292.945455 -488.973913 
L 288.436364 -486.587424 
L 283.927273 -479.707759 
L 279.418182 -469.120394 
L 274.909091 -455.968917 
L 270.4 -441.552305 
L 265.890909 -427.116404 
L 261.381818 -413.685321 
L 256.872727 -401.961714 
L 252.363636 -392.30327 
L 247.854545 -384.763017 
L 243.345455 -379.169163 
L 238.836364 -375.217634 
L 234.327273 -372.555633 
L 229.818182 -370.843457 
L 225.309091 -369.791049 
L 220.8 -369.172415 
L 216.290909 -368.824431 
L 211.781818 -368.637031 
L 207.272727 -368.540372 
L 202.763636 -368.492604 
L 198.254545 -368.469981 
L 193.745455 -368.459709 
L 189.236364 -368.455237 
L 184.727273 -368.453371 
L 180.218182 -368.452174 
L 175.709091 -368.452174 
L 171.2 -368.452174 
L 166.690909 -368.452174 
L 162.181818 -368.452174 
L 157.672727 -368.452174 
L 153.163636 -368.452174 
L 148.654545 -368.452174 
L 144.145455 -368.452174 
L 139.636364 -368.452174 
L 135.127273 -368.452174 
L 130.618182 -368.452174 
L 126.109091 -368.452174 
L 121.6 -368.452174 
L 117.090909 -368.452174 
L 112.581818 -368.452174 
L 108.072727 -368.452174 
L 103.563636 -368.452174 
L 99.054545 -368.452174 
L 94.545455 -368.452174 
L 90.036364 -368.452174 
L 85.527273 -368.452174 
L 81.018182 -368.452174 
L 76.509091 -368.452174 
L 72 -368.452174 
z
" id="mb64c89c8ee" style="stroke:#0000ff;stroke-opacity:0.4;"/>
    </defs>
    <g clip-path="url(#p71bb5d8d4b)">
     <use style="fill:#0000ff;fill-opacity:0.4;stroke:#0000ff;stroke-opacity:0.4;" x="0" xlink:href="#mb64c89c8ee" y="720"/>
    </g>
   </g>
   <g id="matplotlib.axis_3">
    <g id="xtick_5">
     <g id="line2d_20">
      <path clip-path="url(#p71bb5d8d4b)" d="M 180.218182 351.547826 
L 180.218182 231.026087 
" style="fill:none;stroke:#b0b0b0;stroke-linecap:square;stroke-width:0.8;"/>
     </g>
     <g id="line2d_21">
      <g>
       <use style="stroke:#000000;stroke-width:0.8;" x="180.218182" xlink:href="#m44839b530f" y="351.547826"/>
      </g>
     </g>
    </g>
    <g id="xtick_6">
     <g id="line2d_22">
      <path clip-path="url(#p71bb5d8d4b)" d="M 292.945455 351.547826 
L 292.945455 231.026087 
" style="fill:none;stroke:#b0b0b0;stroke-linecap:square;stroke-width:0.8;"/>
     </g>
     <g id="line2d_23">
      <g>
       <use style="stroke:#000000;stroke-width:0.8;" x="292.945455" xlink:href="#m44839b530f" y="351.547826"/>
      </g>
     </g>
    </g>
    <g id="xtick_7">
     <g id="line2d_24">
      <path clip-path="url(#p71bb5d8d4b)" d="M 405.672727 351.547826 
L 405.672727 231.026087 
" style="fill:none;stroke:#b0b0b0;stroke-linecap:square;stroke-width:0.8;"/>
     </g>
     <g id="line2d_25">
      <g>
       <use style="stroke:#000000;stroke-width:0.8;" x="405.672727" xlink:href="#m44839b530f" y="351.547826"/>
      </g>
     </g>
    </g>
    <g id="xtick_8">
     <g id="line2d_26">
      <path clip-path="url(#p71bb5d8d4b)" d="M 518.4 351.547826 
L 518.4 231.026087 
" style="fill:none;stroke:#b0b0b0;stroke-linecap:square;stroke-width:0.8;"/>
     </g>
     <g id="line2d_27">
      <g>
       <use style="stroke:#000000;stroke-width:0.8;" x="518.4" xlink:href="#m44839b530f" y="351.547826"/>
      </g>
     </g>
    </g>
   </g>
   <g id="matplotlib.axis_4">
    <g id="ytick_6">
     <g id="line2d_28">
      <path clip-path="url(#p71bb5d8d4b)" d="M 72 351.547826 
L 518.4 351.547826 
" style="fill:none;stroke:#b0b0b0;stroke-linecap:square;stroke-width:0.8;"/>
     </g>
     <g id="line2d_29">
      <g>
       <use style="stroke:#000000;stroke-width:0.8;" x="72" xlink:href="#me5d79111a9" y="351.547826"/>
      </g>
     </g>
     <g id="text_8">
      <!-- 0.00 -->
      <g transform="translate(29.375 357.626576)scale(0.16 -0.16)">
       <use xlink:href="#DejaVuSans-48"/>
       <use x="63.623047" xlink:href="#DejaVuSans-46"/>
       <use x="95.410156" xlink:href="#DejaVuSans-48"/>
       <use x="159.033203" xlink:href="#DejaVuSans-48"/>
      </g>
     </g>
    </g>
    <g id="ytick_7">
     <g id="line2d_30">
      <path clip-path="url(#p71bb5d8d4b)" d="M 72 321.417391 
L 518.4 321.417391 
" style="fill:none;stroke:#b0b0b0;stroke-linecap:square;stroke-width:0.8;"/>
     </g>
     <g id="line2d_31">
      <g>
       <use style="stroke:#000000;stroke-width:0.8;" x="72" xlink:href="#me5d79111a9" y="321.417391"/>
      </g>
     </g>
     <g id="text_9">
      <!-- 0.25 -->
      <g transform="translate(29.375 327.496141)scale(0.16 -0.16)">
       <use xlink:href="#DejaVuSans-48"/>
       <use x="63.623047" xlink:href="#DejaVuSans-46"/>
       <use x="95.410156" xlink:href="#DejaVuSans-50"/>
       <use x="159.033203" xlink:href="#DejaVuSans-53"/>
      </g>
     </g>
    </g>
    <g id="ytick_8">
     <g id="line2d_32">
      <path clip-path="url(#p71bb5d8d4b)" d="M 72 291.286957 
L 518.4 291.286957 
" style="fill:none;stroke:#b0b0b0;stroke-linecap:square;stroke-width:0.8;"/>
     </g>
     <g id="line2d_33">
      <g>
       <use style="stroke:#000000;stroke-width:0.8;" x="72" xlink:href="#me5d79111a9" y="291.286957"/>
      </g>
     </g>
     <g id="text_10">
      <!-- 0.50 -->
      <g transform="translate(29.375 297.365707)scale(0.16 -0.16)">
       <use xlink:href="#DejaVuSans-48"/>
       <use x="63.623047" xlink:href="#DejaVuSans-46"/>
       <use x="95.410156" xlink:href="#DejaVuSans-53"/>
       <use x="159.033203" xlink:href="#DejaVuSans-48"/>
      </g>
     </g>
    </g>
    <g id="ytick_9">
     <g id="line2d_34">
      <path clip-path="url(#p71bb5d8d4b)" d="M 72 261.156522 
L 518.4 261.156522 
" style="fill:none;stroke:#b0b0b0;stroke-linecap:square;stroke-width:0.8;"/>
     </g>
     <g id="line2d_35">
      <g>
       <use style="stroke:#000000;stroke-width:0.8;" x="72" xlink:href="#me5d79111a9" y="261.156522"/>
      </g>
     </g>
     <g id="text_11">
      <!-- 0.75 -->
      <g transform="translate(29.375 267.235272)scale(0.16 -0.16)">
       <use xlink:href="#DejaVuSans-48"/>
       <use x="63.623047" xlink:href="#DejaVuSans-46"/>
       <use x="95.410156" xlink:href="#DejaVuSans-55"/>
       <use x="159.033203" xlink:href="#DejaVuSans-53"/>
      </g>
     </g>
    </g>
    <g id="ytick_10">
     <g id="line2d_36">
      <path clip-path="url(#p71bb5d8d4b)" d="M 72 231.026087 
L 518.4 231.026087 
" style="fill:none;stroke:#b0b0b0;stroke-linecap:square;stroke-width:0.8;"/>
     </g>
     <g id="line2d_37">
      <g>
       <use style="stroke:#000000;stroke-width:0.8;" x="72" xlink:href="#me5d79111a9" y="231.026087"/>
      </g>
     </g>
     <g id="text_12">
      <!-- 1.00 -->
      <g transform="translate(29.375 237.104837)scale(0.16 -0.16)">
       <use xlink:href="#DejaVuSans-49"/>
       <use x="63.623047" xlink:href="#DejaVuSans-46"/>
       <use x="95.410156" xlink:href="#DejaVuSans-48"/>
       <use x="159.033203" xlink:href="#DejaVuSans-48"/>
      </g>
     </g>
    </g>
    <g id="text_13">
     <!-- Height -->
     <g transform="translate(22.0475 317.733207)rotate(-90)scale(0.16 -0.16)">
      <use xlink:href="#DejaVuSans-72"/>
      <use x="75.195312" xlink:href="#DejaVuSans-101"/>
      <use x="136.71875" xlink:href="#DejaVuSans-105"/>
      <use x="164.501953" xlink:href="#DejaVuSans-103"/>
      <use x="227.978516" xlink:href="#DejaVuSans-104"/>
      <use x="291.357422" xlink:href="#DejaVuSans-116"/>
     </g>
    </g>
   </g>
   <g id="line2d_38">
    <path clip-path="url(#p71bb5d8d4b)" d="M 72 351.547826 
L 76.509091 351.547826 
L 81.018182 351.547826 
L 85.527273 351.547826 
L 90.036364 351.547826 
L 94.545455 351.547826 
L 99.054545 351.547826 
L 103.563636 351.547826 
L 108.072727 351.547826 
L 112.581818 351.547826 
L 117.090909 351.547826 
L 121.6 351.547826 
L 126.109091 351.547826 
L 130.618182 351.547826 
L 135.127273 351.547826 
L 139.636364 351.547826 
L 144.145455 351.547826 
L 148.654545 351.547826 
L 153.163636 351.547826 
L 157.672727 351.547826 
L 162.181818 351.547826 
L 166.690909 351.547826 
L 171.2 351.547826 
L 175.709091 351.547826 
L 180.218182 351.547826 
L 184.727273 351.546629 
L 189.236364 351.544763 
L 193.745455 351.540291 
L 198.254545 351.530019 
L 202.763636 351.507396 
L 207.272727 351.459628 
L 211.781818 351.362969 
L 216.290909 351.175569 
L 220.8 350.827585 
L 225.309091 350.208951 
L 229.818182 349.156543 
L 234.327273 347.444367 
L 238.836364 344.782366 
L 243.345455 340.830837 
L 247.854545 335.236983 
L 252.363636 327.69673 
L 256.872727 318.038286 
L 261.381818 306.314679 
L 265.890909 292.883596 
L 270.4 278.447695 
L 274.909091 264.031083 
L 279.418182 250.879606 
L 283.927273 240.292241 
L 288.436364 233.412576 
L 292.945455 231.026087 
L 297.454545 233.412576 
L 301.963636 240.292241 
L 306.472727 250.879606 
L 310.981818 264.031083 
L 315.490909 278.447695 
L 320 292.883596 
L 324.509091 306.314679 
L 329.018182 318.038286 
L 333.527273 327.69673 
L 338.036364 335.236983 
L 342.545455 340.830837 
L 347.054545 344.782366 
L 351.563636 347.444367 
L 356.072727 349.156543 
L 360.581818 350.208951 
L 365.090909 350.827585 
L 369.6 351.175569 
L 374.109091 351.362969 
L 378.618182 351.459628 
L 383.127273 351.507396 
L 387.636364 351.530019 
L 392.145455 351.540291 
L 396.654545 351.544763 
L 401.163636 351.546629 
L 405.672727 351.547377 
L 410.181818 351.547664 
L 414.690909 351.54777 
L 419.2 351.547807 
L 423.709091 351.54782 
L 428.218182 351.547824 
L 432.727273 351.547826 
L 437.236364 351.547826 
L 441.745455 351.547826 
L 446.254545 351.547826 
L 450.763636 351.547826 
L 455.272727 351.547826 
L 459.781818 351.547826 
L 464.290909 351.547826 
L 468.8 351.547826 
L 473.309091 351.547826 
L 477.818182 351.547826 
L 482.327273 351.547826 
L 486.836364 351.547826 
L 491.345455 351.547826 
L 495.854545 351.547826 
L 500.363636 351.547826 
L 504.872727 351.547826 
L 509.381818 351.547826 
L 513.890909 351.547826 
L 518.4 351.547826 
" style="fill:none;stroke:#0000ff;stroke-linecap:square;stroke-width:1.5;"/>
   </g>
   <g id="patch_8">
    <path d="M 72 351.547826 
L 72 231.026087 
" style="fill:none;stroke:#000000;stroke-linecap:square;stroke-linejoin:miter;stroke-width:0.8;"/>
   </g>
   <g id="patch_9">
    <path d="M 518.4 351.547826 
L 518.4 231.026087 
" style="fill:none;stroke:#000000;stroke-linecap:square;stroke-linejoin:miter;stroke-width:0.8;"/>
   </g>
   <g id="patch_10">
    <path d="M 72 351.547826 
L 518.4 351.547826 
" style="fill:none;stroke:#000000;stroke-linecap:square;stroke-linejoin:miter;stroke-width:0.8;"/>
   </g>
   <g id="patch_11">
    <path d="M 72 231.026087 
L 518.4 231.026087 
" style="fill:none;stroke:#000000;stroke-linecap:square;stroke-linejoin:miter;stroke-width:0.8;"/>
   </g>
   <g id="text_14">
    <!-- Time step  25 -->
    <g transform="translate(229.5765 225.026087)scale(0.192 -0.192)">
     <use xlink:href="#DejaVuSans-84"/>
     <use x="57.958984" xlink:href="#DejaVuSans-105"/>
     <use x="85.742188" xlink:href="#DejaVuSans-109"/>
     <use x="183.154297" xlink:href="#DejaVuSans-101"/>
     <use x="244.677734" xlink:href="#DejaVuSans-32"/>
     <use x="276.464844" xlink:href="#DejaVuSans-115"/>
     <use x="328.564453" xlink:href="#DejaVuSans-116"/>
     <use x="367.773438" xlink:href="#DejaVuSans-101"/>
     <use x="429.296875" xlink:href="#DejaVuSans-112"/>
     <use x="492.773438" xlink:href="#DejaVuSans-32"/>
     <use x="524.560547" xlink:href="#DejaVuSans-32"/>
     <use x="556.347656" xlink:href="#DejaVuSans-50"/>
     <use x="619.970703" xlink:href="#DejaVuSans-53"/>
    </g>
   </g>
  </g>
  <g id="axes_3">
   <g id="patch_12">
    <path d="M 72 496.173913 
L 518.4 496.173913 
L 518.4 375.652174 
L 72 375.652174 
z
" style="fill:#ffffff;"/>
   </g>
   <g id="PolyCollection_3">
    <defs>
     <path d="M 72 -223.826249 
L 72 -223.826087 
L 76.509091 -223.826087 
L 81.018182 -223.826087 
L 85.527273 -223.826087 
L 90.036364 -223.826087 
L 94.545455 -223.826087 
L 99.054545 -223.826087 
L 103.563636 -223.826087 
L 108.072727 -223.826087 
L 112.581818 -223.826087 
L 117.090909 -223.826087 
L 121.6 -223.826087 
L 126.109091 -223.826087 
L 130.618182 -223.826087 
L 135.127273 -223.826087 
L 139.636364 -223.826087 
L 144.145455 -223.826087 
L 148.654545 -223.826087 
L 153.163636 -223.826087 
L 157.672727 -223.826087 
L 162.181818 -223.826087 
L 166.690909 -223.826087 
L 171.2 -223.826087 
L 175.709091 -223.826087 
L 180.218182 -223.826087 
L 184.727273 -223.826087 
L 189.236364 -223.826087 
L 193.745455 -223.826087 
L 198.254545 -223.826087 
L 202.763636 -223.826087 
L 207.272727 -223.826087 
L 211.781818 -223.826087 
L 216.290909 -223.826087 
L 220.8 -223.826087 
L 225.309091 -223.826087 
L 229.818182 -223.826087 
L 234.327273 -223.826087 
L 238.836364 -223.826087 
L 243.345455 -223.826087 
L 247.854545 -223.826087 
L 252.363636 -223.826087 
L 256.872727 -223.826087 
L 261.381818 -223.826087 
L 265.890909 -223.826087 
L 270.4 -223.826087 
L 274.909091 -223.826087 
L 279.418182 -223.826087 
L 283.927273 -223.826087 
L 288.436364 -223.826087 
L 292.945455 -223.826087 
L 297.454545 -223.826087 
L 301.963636 -223.826087 
L 306.472727 -223.826087 
L 310.981818 -223.826087 
L 315.490909 -223.826087 
L 320 -223.826087 
L 324.509091 -223.826087 
L 329.018182 -223.826087 
L 333.527273 -223.826087 
L 338.036364 -223.826087 
L 342.545455 -223.826087 
L 347.054545 -223.826087 
L 351.563636 -223.826087 
L 356.072727 -223.826087 
L 360.581818 -223.826087 
L 365.090909 -223.826087 
L 369.6 -223.826087 
L 374.109091 -223.826087 
L 378.618182 -223.826087 
L 383.127273 -223.826087 
L 387.636364 -223.826087 
L 392.145455 -223.826087 
L 396.654545 -223.826087 
L 401.163636 -223.826087 
L 405.672727 -223.826087 
L 410.181818 -223.826087 
L 414.690909 -223.826087 
L 419.2 -223.826087 
L 423.709091 -223.826087 
L 428.218182 -223.826087 
L 432.727273 -223.826087 
L 437.236364 -223.826087 
L 441.745455 -223.826087 
L 446.254545 -223.826087 
L 450.763636 -223.826087 
L 455.272727 -223.826087 
L 459.781818 -223.826087 
L 464.290909 -223.826087 
L 468.8 -223.826087 
L 473.309091 -223.826087 
L 477.818182 -223.826087 
L 482.327273 -223.826087 
L 486.836364 -223.826087 
L 491.345455 -223.826087 
L 495.854545 -223.826087 
L 500.363636 -223.826087 
L 504.872727 -223.826087 
L 509.381818 -223.826087 
L 513.890909 -223.826087 
L 518.4 -223.826087 
L 518.4 -223.826536 
L 518.4 -223.826536 
L 513.890909 -223.827284 
L 509.381818 -223.829151 
L 504.872727 -223.833622 
L 500.363636 -223.843894 
L 495.854545 -223.866517 
L 491.345455 -223.914285 
L 486.836364 -224.010944 
L 482.327273 -224.198344 
L 477.818182 -224.546328 
L 473.309091 -225.164963 
L 468.8 -226.217371 
L 464.290909 -227.929546 
L 459.781818 -230.591547 
L 455.272727 -234.543076 
L 450.763636 -240.13693 
L 446.254545 -247.677183 
L 441.745455 -257.335627 
L 437.236364 -269.059234 
L 432.727273 -282.490317 
L 428.218182 -296.926218 
L 423.709091 -311.34283 
L 419.2 -324.494307 
L 414.690909 -335.081672 
L 410.181818 -341.961337 
L 405.672727 -344.347826 
L 401.163636 -341.961337 
L 396.654545 -335.081672 
L 392.145455 -324.494307 
L 387.636364 -311.34283 
L 383.127273 -296.926218 
L 378.618182 -282.490317 
L 374.109091 -269.059234 
L 369.6 -257.335627 
L 365.090909 -247.677183 
L 360.581818 -240.13693 
L 356.072727 -234.543076 
L 351.563636 -230.591547 
L 347.054545 -227.929546 
L 342.545455 -226.217371 
L 338.036364 -225.164963 
L 333.527273 -224.546328 
L 329.018182 -224.198344 
L 324.509091 -224.010944 
L 320 -223.914285 
L 315.490909 -223.866517 
L 310.981818 -223.843894 
L 306.472727 -223.833622 
L 301.963636 -223.829151 
L 297.454545 -223.827284 
L 292.945455 -223.826087 
L 288.436364 -223.826087 
L 283.927273 -223.826087 
L 279.418182 -223.826087 
L 274.909091 -223.826087 
L 270.4 -223.826087 
L 265.890909 -223.826087 
L 261.381818 -223.826087 
L 256.872727 -223.826087 
L 252.363636 -223.826087 
L 247.854545 -223.826087 
L 243.345455 -223.826087 
L 238.836364 -223.826087 
L 234.327273 -223.826087 
L 229.818182 -223.826087 
L 225.309091 -223.826087 
L 220.8 -223.826087 
L 216.290909 -223.826087 
L 211.781818 -223.826087 
L 207.272727 -223.826087 
L 202.763636 -223.826087 
L 198.254545 -223.826087 
L 193.745455 -223.826087 
L 189.236364 -223.826087 
L 184.727273 -223.826087 
L 180.218182 -223.826087 
L 175.709091 -223.826087 
L 171.2 -223.826087 
L 166.690909 -223.826087 
L 162.181818 -223.826087 
L 157.672727 -223.826087 
L 153.163636 -223.826087 
L 148.654545 -223.826087 
L 144.145455 -223.826087 
L 139.636364 -223.826087 
L 135.127273 -223.826087 
L 130.618182 -223.826087 
L 126.109091 -223.826087 
L 121.6 -223.826087 
L 117.090909 -223.826087 
L 112.581818 -223.826087 
L 108.072727 -223.826087 
L 103.563636 -223.826087 
L 99.054545 -223.826087 
L 94.545455 -223.826087 
L 90.036364 -223.826089 
L 85.527273 -223.826093 
L 81.018182 -223.826106 
L 76.509091 -223.826143 
L 72 -223.826249 
z
" id="mb00e3cd012" style="stroke:#0000ff;stroke-opacity:0.4;"/>
    </defs>
    <g clip-path="url(#pf92d899a83)">
     <use style="fill:#0000ff;fill-opacity:0.4;stroke:#0000ff;stroke-opacity:0.4;" x="0" xlink:href="#mb00e3cd012" y="720"/>
    </g>
   </g>
   <g id="matplotlib.axis_5">
    <g id="xtick_9">
     <g id="line2d_39">
      <path clip-path="url(#pf92d899a83)" d="M 180.218182 496.173913 
L 180.218182 375.652174 
" style="fill:none;stroke:#b0b0b0;stroke-linecap:square;stroke-width:0.8;"/>
     </g>
     <g id="line2d_40">
      <g>
       <use style="stroke:#000000;stroke-width:0.8;" x="180.218182" xlink:href="#m44839b530f" y="496.173913"/>
      </g>
     </g>
    </g>
    <g id="xtick_10">
     <g id="line2d_41">
      <path clip-path="url(#pf92d899a83)" d="M 292.945455 496.173913 
L 292.945455 375.652174 
" style="fill:none;stroke:#b0b0b0;stroke-linecap:square;stroke-width:0.8;"/>
     </g>
     <g id="line2d_42">
      <g>
       <use style="stroke:#000000;stroke-width:0.8;" x="292.945455" xlink:href="#m44839b530f" y="496.173913"/>
      </g>
     </g>
    </g>
    <g id="xtick_11">
     <g id="line2d_43">
      <path clip-path="url(#pf92d899a83)" d="M 405.672727 496.173913 
L 405.672727 375.652174 
" style="fill:none;stroke:#b0b0b0;stroke-linecap:square;stroke-width:0.8;"/>
     </g>
     <g id="line2d_44">
      <g>
       <use style="stroke:#000000;stroke-width:0.8;" x="405.672727" xlink:href="#m44839b530f" y="496.173913"/>
      </g>
     </g>
    </g>
    <g id="xtick_12">
     <g id="line2d_45">
      <path clip-path="url(#pf92d899a83)" d="M 518.4 496.173913 
L 518.4 375.652174 
" style="fill:none;stroke:#b0b0b0;stroke-linecap:square;stroke-width:0.8;"/>
     </g>
     <g id="line2d_46">
      <g>
       <use style="stroke:#000000;stroke-width:0.8;" x="518.4" xlink:href="#m44839b530f" y="496.173913"/>
      </g>
     </g>
    </g>
   </g>
   <g id="matplotlib.axis_6">
    <g id="ytick_11">
     <g id="line2d_47">
      <path clip-path="url(#pf92d899a83)" d="M 72 496.173913 
L 518.4 496.173913 
" style="fill:none;stroke:#b0b0b0;stroke-linecap:square;stroke-width:0.8;"/>
     </g>
     <g id="line2d_48">
      <g>
       <use style="stroke:#000000;stroke-width:0.8;" x="72" xlink:href="#me5d79111a9" y="496.173913"/>
      </g>
     </g>
     <g id="text_15">
      <!-- 0.00 -->
      <g transform="translate(29.375 502.252663)scale(0.16 -0.16)">
       <use xlink:href="#DejaVuSans-48"/>
       <use x="63.623047" xlink:href="#DejaVuSans-46"/>
       <use x="95.410156" xlink:href="#DejaVuSans-48"/>
       <use x="159.033203" xlink:href="#DejaVuSans-48"/>
      </g>
     </g>
    </g>
    <g id="ytick_12">
     <g id="line2d_49">
      <path clip-path="url(#pf92d899a83)" d="M 72 466.043478 
L 518.4 466.043478 
" style="fill:none;stroke:#b0b0b0;stroke-linecap:square;stroke-width:0.8;"/>
     </g>
     <g id="line2d_50">
      <g>
       <use style="stroke:#000000;stroke-width:0.8;" x="72" xlink:href="#me5d79111a9" y="466.043478"/>
      </g>
     </g>
     <g id="text_16">
      <!-- 0.25 -->
      <g transform="translate(29.375 472.122228)scale(0.16 -0.16)">
       <use xlink:href="#DejaVuSans-48"/>
       <use x="63.623047" xlink:href="#DejaVuSans-46"/>
       <use x="95.410156" xlink:href="#DejaVuSans-50"/>
       <use x="159.033203" xlink:href="#DejaVuSans-53"/>
      </g>
     </g>
    </g>
    <g id="ytick_13">
     <g id="line2d_51">
      <path clip-path="url(#pf92d899a83)" d="M 72 435.913043 
L 518.4 435.913043 
" style="fill:none;stroke:#b0b0b0;stroke-linecap:square;stroke-width:0.8;"/>
     </g>
     <g id="line2d_52">
      <g>
       <use style="stroke:#000000;stroke-width:0.8;" x="72" xlink:href="#me5d79111a9" y="435.913043"/>
      </g>
     </g>
     <g id="text_17">
      <!-- 0.50 -->
      <g transform="translate(29.375 441.991793)scale(0.16 -0.16)">
       <use xlink:href="#DejaVuSans-48"/>
       <use x="63.623047" xlink:href="#DejaVuSans-46"/>
       <use x="95.410156" xlink:href="#DejaVuSans-53"/>
       <use x="159.033203" xlink:href="#DejaVuSans-48"/>
      </g>
     </g>
    </g>
    <g id="ytick_14">
     <g id="line2d_53">
      <path clip-path="url(#pf92d899a83)" d="M 72 405.782609 
L 518.4 405.782609 
" style="fill:none;stroke:#b0b0b0;stroke-linecap:square;stroke-width:0.8;"/>
     </g>
     <g id="line2d_54">
      <g>
       <use style="stroke:#000000;stroke-width:0.8;" x="72" xlink:href="#me5d79111a9" y="405.782609"/>
      </g>
     </g>
     <g id="text_18">
      <!-- 0.75 -->
      <g transform="translate(29.375 411.861359)scale(0.16 -0.16)">
       <use xlink:href="#DejaVuSans-48"/>
       <use x="63.623047" xlink:href="#DejaVuSans-46"/>
       <use x="95.410156" xlink:href="#DejaVuSans-55"/>
       <use x="159.033203" xlink:href="#DejaVuSans-53"/>
      </g>
     </g>
    </g>
    <g id="ytick_15">
     <g id="line2d_55">
      <path clip-path="url(#pf92d899a83)" d="M 72 375.652174 
L 518.4 375.652174 
" style="fill:none;stroke:#b0b0b0;stroke-linecap:square;stroke-width:0.8;"/>
     </g>
     <g id="line2d_56">
      <g>
       <use style="stroke:#000000;stroke-width:0.8;" x="72" xlink:href="#me5d79111a9" y="375.652174"/>
      </g>
     </g>
     <g id="text_19">
      <!-- 1.00 -->
      <g transform="translate(29.375 381.730924)scale(0.16 -0.16)">
       <use xlink:href="#DejaVuSans-49"/>
       <use x="63.623047" xlink:href="#DejaVuSans-46"/>
       <use x="95.410156" xlink:href="#DejaVuSans-48"/>
       <use x="159.033203" xlink:href="#DejaVuSans-48"/>
      </g>
     </g>
    </g>
    <g id="text_20">
     <!-- Height -->
     <g transform="translate(22.0475 462.359293)rotate(-90)scale(0.16 -0.16)">
      <use xlink:href="#DejaVuSans-72"/>
      <use x="75.195312" xlink:href="#DejaVuSans-101"/>
      <use x="136.71875" xlink:href="#DejaVuSans-105"/>
      <use x="164.501953" xlink:href="#DejaVuSans-103"/>
      <use x="227.978516" xlink:href="#DejaVuSans-104"/>
      <use x="291.357422" xlink:href="#DejaVuSans-116"/>
     </g>
    </g>
   </g>
   <g id="line2d_57">
    <path clip-path="url(#pf92d899a83)" d="M 72 496.173751 
L 76.509091 496.173857 
L 81.018182 496.173894 
L 85.527273 496.173907 
L 90.036364 496.173911 
L 94.545455 496.173913 
L 99.054545 496.173913 
L 103.563636 496.173913 
L 108.072727 496.173913 
L 112.581818 496.173913 
L 117.090909 496.173913 
L 121.6 496.173913 
L 126.109091 496.173913 
L 130.618182 496.173913 
L 135.127273 496.173913 
L 139.636364 496.173913 
L 144.145455 496.173913 
L 148.654545 496.173913 
L 153.163636 496.173913 
L 157.672727 496.173913 
L 162.181818 496.173913 
L 166.690909 496.173913 
L 171.2 496.173913 
L 175.709091 496.173913 
L 180.218182 496.173913 
L 184.727273 496.173913 
L 189.236364 496.173913 
L 193.745455 496.173913 
L 198.254545 496.173913 
L 202.763636 496.173913 
L 207.272727 496.173913 
L 211.781818 496.173913 
L 216.290909 496.173913 
L 220.8 496.173913 
L 225.309091 496.173913 
L 229.818182 496.173913 
L 234.327273 496.173913 
L 238.836364 496.173913 
L 243.345455 496.173913 
L 247.854545 496.173913 
L 252.363636 496.173913 
L 256.872727 496.173913 
L 261.381818 496.173913 
L 265.890909 496.173913 
L 270.4 496.173913 
L 274.909091 496.173913 
L 279.418182 496.173913 
L 283.927273 496.173913 
L 288.436364 496.173913 
L 292.945455 496.173913 
L 297.454545 496.172716 
L 301.963636 496.170849 
L 306.472727 496.166378 
L 310.981818 496.156106 
L 315.490909 496.133483 
L 320 496.085715 
L 324.509091 495.989056 
L 329.018182 495.801656 
L 333.527273 495.453672 
L 338.036364 494.835037 
L 342.545455 493.782629 
L 347.054545 492.070454 
L 351.563636 489.408453 
L 356.072727 485.456924 
L 360.581818 479.86307 
L 365.090909 472.322817 
L 369.6 462.664373 
L 374.109091 450.940766 
L 378.618182 437.509683 
L 383.127273 423.073782 
L 387.636364 408.65717 
L 392.145455 395.505693 
L 396.654545 384.918328 
L 401.163636 378.038663 
L 405.672727 375.652174 
L 410.181818 378.038663 
L 414.690909 384.918328 
L 419.2 395.505693 
L 423.709091 408.65717 
L 428.218182 423.073782 
L 432.727273 437.509683 
L 437.236364 450.940766 
L 441.745455 462.664373 
L 446.254545 472.322817 
L 450.763636 479.86307 
L 455.272727 485.456924 
L 459.781818 489.408453 
L 464.290909 492.070454 
L 468.8 493.782629 
L 473.309091 494.835037 
L 477.818182 495.453672 
L 482.327273 495.801656 
L 486.836364 495.989056 
L 491.345455 496.085715 
L 495.854545 496.133483 
L 500.363636 496.156106 
L 504.872727 496.166378 
L 509.381818 496.170849 
L 513.890909 496.172716 
L 518.4 496.173464 
" style="fill:none;stroke:#0000ff;stroke-linecap:square;stroke-width:1.5;"/>
   </g>
   <g id="patch_13">
    <path d="M 72 496.173913 
L 72 375.652174 
" style="fill:none;stroke:#000000;stroke-linecap:square;stroke-linejoin:miter;stroke-width:0.8;"/>
   </g>
   <g id="patch_14">
    <path d="M 518.4 496.173913 
L 518.4 375.652174 
" style="fill:none;stroke:#000000;stroke-linecap:square;stroke-linejoin:miter;stroke-width:0.8;"/>
   </g>
   <g id="patch_15">
    <path d="M 72 496.173913 
L 518.4 496.173913 
" style="fill:none;stroke:#000000;stroke-linecap:square;stroke-linejoin:miter;stroke-width:0.8;"/>
   </g>
   <g id="patch_16">
    <path d="M 72 375.652174 
L 518.4 375.652174 
" style="fill:none;stroke:#000000;stroke-linecap:square;stroke-linejoin:miter;stroke-width:0.8;"/>
   </g>
   <g id="text_21">
    <!-- Time step  50 -->
    <g transform="translate(229.5765 369.652174)scale(0.192 -0.192)">
     <use xlink:href="#DejaVuSans-84"/>
     <use x="57.958984" xlink:href="#DejaVuSans-105"/>
     <use x="85.742188" xlink:href="#DejaVuSans-109"/>
     <use x="183.154297" xlink:href="#DejaVuSans-101"/>
     <use x="244.677734" xlink:href="#DejaVuSans-32"/>
     <use x="276.464844" xlink:href="#DejaVuSans-115"/>
     <use x="328.564453" xlink:href="#DejaVuSans-116"/>
     <use x="367.773438" xlink:href="#DejaVuSans-101"/>
     <use x="429.296875" xlink:href="#DejaVuSans-112"/>
     <use x="492.773438" xlink:href="#DejaVuSans-32"/>
     <use x="524.560547" xlink:href="#DejaVuSans-32"/>
     <use x="556.347656" xlink:href="#DejaVuSans-53"/>
     <use x="619.970703" xlink:href="#DejaVuSans-48"/>
    </g>
   </g>
  </g>
  <g id="axes_4">
   <g id="patch_17">
    <path d="M 72 640.8 
L 518.4 640.8 
L 518.4 520.278261 
L 72 520.278261 
z
" style="fill:#ffffff;"/>
   </g>
   <g id="PolyCollection_4">
    <defs>
     <path d="M 72 -197.33525 
L 72 -79.2 
L 76.509091 -79.2 
L 81.018182 -79.2 
L 85.527273 -79.2 
L 90.036364 -79.2 
L 94.545455 -79.2 
L 99.054545 -79.2 
L 103.563636 -79.2 
L 108.072727 -79.2 
L 112.581818 -79.2 
L 117.090909 -79.2 
L 121.6 -79.2 
L 126.109091 -79.2 
L 130.618182 -79.2 
L 135.127273 -79.2 
L 139.636364 -79.2 
L 144.145455 -79.2 
L 148.654545 -79.2 
L 153.163636 -79.2 
L 157.672727 -79.2 
L 162.181818 -79.2 
L 166.690909 -79.2 
L 171.2 -79.2 
L 175.709091 -79.2 
L 180.218182 -79.2 
L 184.727273 -79.2 
L 189.236364 -79.2 
L 193.745455 -79.2 
L 198.254545 -79.2 
L 202.763636 -79.2 
L 207.272727 -79.2 
L 211.781818 -79.2 
L 216.290909 -79.2 
L 220.8 -79.2 
L 225.309091 -79.2 
L 229.818182 -79.2 
L 234.327273 -79.2 
L 238.836364 -79.2 
L 243.345455 -79.2 
L 247.854545 -79.2 
L 252.363636 -79.2 
L 256.872727 -79.2 
L 261.381818 -79.2 
L 265.890909 -79.2 
L 270.4 -79.2 
L 274.909091 -79.2 
L 279.418182 -79.2 
L 283.927273 -79.2 
L 288.436364 -79.2 
L 292.945455 -79.2 
L 297.454545 -79.2 
L 301.963636 -79.2 
L 306.472727 -79.2 
L 310.981818 -79.2 
L 315.490909 -79.2 
L 320 -79.2 
L 324.509091 -79.2 
L 329.018182 -79.2 
L 333.527273 -79.2 
L 338.036364 -79.2 
L 342.545455 -79.2 
L 347.054545 -79.2 
L 351.563636 -79.2 
L 356.072727 -79.2 
L 360.581818 -79.2 
L 365.090909 -79.2 
L 369.6 -79.2 
L 374.109091 -79.2 
L 378.618182 -79.2 
L 383.127273 -79.2 
L 387.636364 -79.2 
L 392.145455 -79.2 
L 396.654545 -79.2 
L 401.163636 -79.2 
L 405.672727 -79.2 
L 410.181818 -79.2 
L 414.690909 -79.2 
L 419.2 -79.2 
L 423.709091 -79.2 
L 428.218182 -79.2 
L 432.727273 -79.2 
L 437.236364 -79.2 
L 441.745455 -79.2 
L 446.254545 -79.2 
L 450.763636 -79.2 
L 455.272727 -79.2 
L 459.781818 -79.2 
L 464.290909 -79.2 
L 468.8 -79.2 
L 473.309091 -79.2 
L 477.818182 -79.2 
L 482.327273 -79.2 
L 486.836364 -79.2 
L 491.345455 -79.2 
L 495.854545 -79.2 
L 500.363636 -79.2 
L 504.872727 -79.2 
L 509.381818 -79.2 
L 513.890909 -79.2 
L 518.4 -79.2 
L 518.4 -199.721739 
L 518.4 -199.721739 
L 513.890909 -197.33525 
L 509.381818 -190.455585 
L 504.872727 -179.86822 
L 500.363636 -166.716743 
L 495.854545 -152.300131 
L 491.345455 -137.86423 
L 486.836364 -124.433147 
L 482.327273 -112.70954 
L 477.818182 -103.051096 
L 473.309091 -95.510843 
L 468.8 -89.916989 
L 464.290909 -85.96546 
L 459.781818 -83.303459 
L 455.272727 -81.591284 
L 450.763636 -80.538876 
L 446.254545 -79.920241 
L 441.745455 -79.572257 
L 437.236364 -79.384858 
L 432.727273 -79.288198 
L 428.218182 -79.240431 
L 423.709091 -79.217807 
L 419.2 -79.207535 
L 414.690909 -79.203064 
L 410.181818 -79.201197 
L 405.672727 -79.2 
L 401.163636 -79.2 
L 396.654545 -79.2 
L 392.145455 -79.2 
L 387.636364 -79.2 
L 383.127273 -79.2 
L 378.618182 -79.2 
L 374.109091 -79.2 
L 369.6 -79.2 
L 365.090909 -79.2 
L 360.581818 -79.2 
L 356.072727 -79.2 
L 351.563636 -79.2 
L 347.054545 -79.2 
L 342.545455 -79.2 
L 338.036364 -79.2 
L 333.527273 -79.2 
L 329.018182 -79.2 
L 324.509091 -79.2 
L 320 -79.2 
L 315.490909 -79.2 
L 310.981818 -79.2 
L 306.472727 -79.2 
L 301.963636 -79.2 
L 297.454545 -79.2 
L 292.945455 -79.2 
L 288.436364 -79.2 
L 283.927273 -79.2 
L 279.418182 -79.2 
L 274.909091 -79.2 
L 270.4 -79.2 
L 265.890909 -79.2 
L 261.381818 -79.2 
L 256.872727 -79.2 
L 252.363636 -79.2 
L 247.854545 -79.2 
L 243.345455 -79.2 
L 238.836364 -79.2 
L 234.327273 -79.2 
L 229.818182 -79.2 
L 225.309091 -79.2 
L 220.8 -79.2 
L 216.290909 -79.2 
L 211.781818 -79.2 
L 207.272727 -79.200001 
L 202.763636 -79.200002 
L 198.254545 -79.200006 
L 193.745455 -79.200019 
L 189.236364 -79.200056 
L 184.727273 -79.200162 
L 180.218182 -79.200449 
L 175.709091 -79.201197 
L 171.2 -79.203064 
L 166.690909 -79.207535 
L 162.181818 -79.217807 
L 157.672727 -79.240431 
L 153.163636 -79.288198 
L 148.654545 -79.384858 
L 144.145455 -79.572257 
L 139.636364 -79.920241 
L 135.127273 -80.538876 
L 130.618182 -81.591284 
L 126.109091 -83.303459 
L 121.6 -85.96546 
L 117.090909 -89.916989 
L 112.581818 -95.510843 
L 108.072727 -103.051096 
L 103.563636 -112.70954 
L 99.054545 -124.433147 
L 94.545455 -137.86423 
L 90.036364 -152.300131 
L 85.527273 -166.716743 
L 81.018182 -179.86822 
L 76.509091 -190.455585 
L 72 -197.33525 
z
" id="m9bdb1efcfb" style="stroke:#0000ff;stroke-opacity:0.4;"/>
    </defs>
    <g clip-path="url(#p9d88f1d26f)">
     <use style="fill:#0000ff;fill-opacity:0.4;stroke:#0000ff;stroke-opacity:0.4;" x="0" xlink:href="#m9bdb1efcfb" y="720"/>
    </g>
   </g>
   <g id="matplotlib.axis_7">
    <g id="xtick_13">
     <g id="line2d_58">
      <path clip-path="url(#p9d88f1d26f)" d="M 180.218182 640.8 
L 180.218182 520.278261 
" style="fill:none;stroke:#b0b0b0;stroke-linecap:square;stroke-width:0.8;"/>
     </g>
     <g id="line2d_59">
      <g>
       <use style="stroke:#000000;stroke-width:0.8;" x="180.218182" xlink:href="#m44839b530f" y="640.8"/>
      </g>
     </g>
     <g id="text_22">
      <!-- 25 -->
      <g transform="translate(170.038182 659.9575)scale(0.16 -0.16)">
       <use xlink:href="#DejaVuSans-50"/>
       <use x="63.623047" xlink:href="#DejaVuSans-53"/>
      </g>
     </g>
    </g>
    <g id="xtick_14">
     <g id="line2d_60">
      <path clip-path="url(#p9d88f1d26f)" d="M 292.945455 640.8 
L 292.945455 520.278261 
" style="fill:none;stroke:#b0b0b0;stroke-linecap:square;stroke-width:0.8;"/>
     </g>
     <g id="line2d_61">
      <g>
       <use style="stroke:#000000;stroke-width:0.8;" x="292.945455" xlink:href="#m44839b530f" y="640.8"/>
      </g>
     </g>
     <g id="text_23">
      <!-- 50 -->
      <g transform="translate(282.765455 659.9575)scale(0.16 -0.16)">
       <use xlink:href="#DejaVuSans-53"/>
       <use x="63.623047" xlink:href="#DejaVuSans-48"/>
      </g>
     </g>
    </g>
    <g id="xtick_15">
     <g id="line2d_62">
      <path clip-path="url(#p9d88f1d26f)" d="M 405.672727 640.8 
L 405.672727 520.278261 
" style="fill:none;stroke:#b0b0b0;stroke-linecap:square;stroke-width:0.8;"/>
     </g>
     <g id="line2d_63">
      <g>
       <use style="stroke:#000000;stroke-width:0.8;" x="405.672727" xlink:href="#m44839b530f" y="640.8"/>
      </g>
     </g>
     <g id="text_24">
      <!-- 75 -->
      <g transform="translate(395.492727 659.9575)scale(0.16 -0.16)">
       <use xlink:href="#DejaVuSans-55"/>
       <use x="63.623047" xlink:href="#DejaVuSans-53"/>
      </g>
     </g>
    </g>
    <g id="xtick_16">
     <g id="line2d_64">
      <path clip-path="url(#p9d88f1d26f)" d="M 518.4 640.8 
L 518.4 520.278261 
" style="fill:none;stroke:#b0b0b0;stroke-linecap:square;stroke-width:0.8;"/>
     </g>
     <g id="line2d_65">
      <g>
       <use style="stroke:#000000;stroke-width:0.8;" x="518.4" xlink:href="#m44839b530f" y="640.8"/>
      </g>
     </g>
     <g id="text_25">
      <!-- 100 -->
      <g transform="translate(503.13 659.9575)scale(0.16 -0.16)">
       <use xlink:href="#DejaVuSans-49"/>
       <use x="63.623047" xlink:href="#DejaVuSans-48"/>
       <use x="127.246094" xlink:href="#DejaVuSans-48"/>
      </g>
     </g>
    </g>
    <g id="text_26">
     <!-- Spatial grid index -->
     <g transform="translate(225.01375 679.4425)scale(0.16 -0.16)">
      <defs>
       <path d="M 53.515625 70.515625 
L 53.515625 60.890625 
Q 47.90625 63.578125 42.921875 64.890625 
Q 37.9375 66.21875 33.296875 66.21875 
Q 25.25 66.21875 20.875 63.09375 
Q 16.5 59.96875 16.5 54.203125 
Q 16.5 49.359375 19.40625 46.890625 
Q 22.3125 44.4375 30.421875 42.921875 
L 36.375 41.703125 
Q 47.40625 39.59375 52.65625 34.296875 
Q 57.90625 29 57.90625 20.125 
Q 57.90625 9.515625 50.796875 4.046875 
Q 43.703125 -1.421875 29.984375 -1.421875 
Q 24.8125 -1.421875 18.96875 -0.25 
Q 13.140625 0.921875 6.890625 3.21875 
L 6.890625 13.375 
Q 12.890625 10.015625 18.65625 8.296875 
Q 24.421875 6.59375 29.984375 6.59375 
Q 38.421875 6.59375 43.015625 9.90625 
Q 47.609375 13.234375 47.609375 19.390625 
Q 47.609375 24.75 44.3125 27.78125 
Q 41.015625 30.8125 33.5 32.328125 
L 27.484375 33.5 
Q 16.453125 35.6875 11.515625 40.375 
Q 6.59375 45.0625 6.59375 53.421875 
Q 6.59375 63.09375 13.40625 68.65625 
Q 20.21875 74.21875 32.171875 74.21875 
Q 37.3125 74.21875 42.625 73.28125 
Q 47.953125 72.359375 53.515625 70.515625 
z
" id="DejaVuSans-83"/>
       <path d="M 34.28125 27.484375 
Q 23.390625 27.484375 19.1875 25 
Q 14.984375 22.515625 14.984375 16.5 
Q 14.984375 11.71875 18.140625 8.90625 
Q 21.296875 6.109375 26.703125 6.109375 
Q 34.1875 6.109375 38.703125 11.40625 
Q 43.21875 16.703125 43.21875 25.484375 
L 43.21875 27.484375 
z
M 52.203125 31.203125 
L 52.203125 0 
L 43.21875 0 
L 43.21875 8.296875 
Q 40.140625 3.328125 35.546875 0.953125 
Q 30.953125 -1.421875 24.3125 -1.421875 
Q 15.921875 -1.421875 10.953125 3.296875 
Q 6 8.015625 6 15.921875 
Q 6 25.140625 12.171875 29.828125 
Q 18.359375 34.515625 30.609375 34.515625 
L 43.21875 34.515625 
L 43.21875 35.40625 
Q 43.21875 41.609375 39.140625 45 
Q 35.0625 48.390625 27.6875 48.390625 
Q 23 48.390625 18.546875 47.265625 
Q 14.109375 46.140625 10.015625 43.890625 
L 10.015625 52.203125 
Q 14.9375 54.109375 19.578125 55.046875 
Q 24.21875 56 28.609375 56 
Q 40.484375 56 46.34375 49.84375 
Q 52.203125 43.703125 52.203125 31.203125 
z
" id="DejaVuSans-97"/>
       <path d="M 9.421875 75.984375 
L 18.40625 75.984375 
L 18.40625 0 
L 9.421875 0 
z
" id="DejaVuSans-108"/>
       <path d="M 41.109375 46.296875 
Q 39.59375 47.171875 37.8125 47.578125 
Q 36.03125 48 33.890625 48 
Q 26.265625 48 22.1875 43.046875 
Q 18.109375 38.09375 18.109375 28.8125 
L 18.109375 0 
L 9.078125 0 
L 9.078125 54.6875 
L 18.109375 54.6875 
L 18.109375 46.1875 
Q 20.953125 51.171875 25.484375 53.578125 
Q 30.03125 56 36.53125 56 
Q 37.453125 56 38.578125 55.875 
Q 39.703125 55.765625 41.0625 55.515625 
z
" id="DejaVuSans-114"/>
       <path d="M 45.40625 46.390625 
L 45.40625 75.984375 
L 54.390625 75.984375 
L 54.390625 0 
L 45.40625 0 
L 45.40625 8.203125 
Q 42.578125 3.328125 38.25 0.953125 
Q 33.9375 -1.421875 27.875 -1.421875 
Q 17.96875 -1.421875 11.734375 6.484375 
Q 5.515625 14.40625 5.515625 27.296875 
Q 5.515625 40.1875 11.734375 48.09375 
Q 17.96875 56 27.875 56 
Q 33.9375 56 38.25 53.625 
Q 42.578125 51.265625 45.40625 46.390625 
z
M 14.796875 27.296875 
Q 14.796875 17.390625 18.875 11.75 
Q 22.953125 6.109375 30.078125 6.109375 
Q 37.203125 6.109375 41.296875 11.75 
Q 45.40625 17.390625 45.40625 27.296875 
Q 45.40625 37.203125 41.296875 42.84375 
Q 37.203125 48.484375 30.078125 48.484375 
Q 22.953125 48.484375 18.875 42.84375 
Q 14.796875 37.203125 14.796875 27.296875 
z
" id="DejaVuSans-100"/>
       <path d="M 54.890625 33.015625 
L 54.890625 0 
L 45.90625 0 
L 45.90625 32.71875 
Q 45.90625 40.484375 42.875 44.328125 
Q 39.84375 48.1875 33.796875 48.1875 
Q 26.515625 48.1875 22.3125 43.546875 
Q 18.109375 38.921875 18.109375 30.90625 
L 18.109375 0 
L 9.078125 0 
L 9.078125 54.6875 
L 18.109375 54.6875 
L 18.109375 46.1875 
Q 21.34375 51.125 25.703125 53.5625 
Q 30.078125 56 35.796875 56 
Q 45.21875 56 50.046875 50.171875 
Q 54.890625 44.34375 54.890625 33.015625 
z
" id="DejaVuSans-110"/>
       <path d="M 54.890625 54.6875 
L 35.109375 28.078125 
L 55.90625 0 
L 45.3125 0 
L 29.390625 21.484375 
L 13.484375 0 
L 2.875 0 
L 24.125 28.609375 
L 4.6875 54.6875 
L 15.28125 54.6875 
L 29.78125 35.203125 
L 44.28125 54.6875 
z
" id="DejaVuSans-120"/>
      </defs>
      <use xlink:href="#DejaVuSans-83"/>
      <use x="63.476562" xlink:href="#DejaVuSans-112"/>
      <use x="126.953125" xlink:href="#DejaVuSans-97"/>
      <use x="188.232422" xlink:href="#DejaVuSans-116"/>
      <use x="227.441406" xlink:href="#DejaVuSans-105"/>
      <use x="255.224609" xlink:href="#DejaVuSans-97"/>
      <use x="316.503906" xlink:href="#DejaVuSans-108"/>
      <use x="344.287109" xlink:href="#DejaVuSans-32"/>
      <use x="376.074219" xlink:href="#DejaVuSans-103"/>
      <use x="439.550781" xlink:href="#DejaVuSans-114"/>
      <use x="480.664062" xlink:href="#DejaVuSans-105"/>
      <use x="508.447266" xlink:href="#DejaVuSans-100"/>
      <use x="571.923828" xlink:href="#DejaVuSans-32"/>
      <use x="603.710938" xlink:href="#DejaVuSans-105"/>
      <use x="631.494141" xlink:href="#DejaVuSans-110"/>
      <use x="694.873047" xlink:href="#DejaVuSans-100"/>
      <use x="758.349609" xlink:href="#DejaVuSans-101"/>
      <use x="818.123047" xlink:href="#DejaVuSans-120"/>
     </g>
    </g>
   </g>
   <g id="matplotlib.axis_8">
    <g id="ytick_16">
     <g id="line2d_66">
      <path clip-path="url(#p9d88f1d26f)" d="M 72 640.8 
L 518.4 640.8 
" style="fill:none;stroke:#b0b0b0;stroke-linecap:square;stroke-width:0.8;"/>
     </g>
     <g id="line2d_67">
      <g>
       <use style="stroke:#000000;stroke-width:0.8;" x="72" xlink:href="#me5d79111a9" y="640.8"/>
      </g>
     </g>
     <g id="text_27">
      <!-- 0.00 -->
      <g transform="translate(29.375 646.87875)scale(0.16 -0.16)">
       <use xlink:href="#DejaVuSans-48"/>
       <use x="63.623047" xlink:href="#DejaVuSans-46"/>
       <use x="95.410156" xlink:href="#DejaVuSans-48"/>
       <use x="159.033203" xlink:href="#DejaVuSans-48"/>
      </g>
     </g>
    </g>
    <g id="ytick_17">
     <g id="line2d_68">
      <path clip-path="url(#p9d88f1d26f)" d="M 72 610.669565 
L 518.4 610.669565 
" style="fill:none;stroke:#b0b0b0;stroke-linecap:square;stroke-width:0.8;"/>
     </g>
     <g id="line2d_69">
      <g>
       <use style="stroke:#000000;stroke-width:0.8;" x="72" xlink:href="#me5d79111a9" y="610.669565"/>
      </g>
     </g>
     <g id="text_28">
      <!-- 0.25 -->
      <g transform="translate(29.375 616.748315)scale(0.16 -0.16)">
       <use xlink:href="#DejaVuSans-48"/>
       <use x="63.623047" xlink:href="#DejaVuSans-46"/>
       <use x="95.410156" xlink:href="#DejaVuSans-50"/>
       <use x="159.033203" xlink:href="#DejaVuSans-53"/>
      </g>
     </g>
    </g>
    <g id="ytick_18">
     <g id="line2d_70">
      <path clip-path="url(#p9d88f1d26f)" d="M 72 580.53913 
L 518.4 580.53913 
" style="fill:none;stroke:#b0b0b0;stroke-linecap:square;stroke-width:0.8;"/>
     </g>
     <g id="line2d_71">
      <g>
       <use style="stroke:#000000;stroke-width:0.8;" x="72" xlink:href="#me5d79111a9" y="580.53913"/>
      </g>
     </g>
     <g id="text_29">
      <!-- 0.50 -->
      <g transform="translate(29.375 586.61788)scale(0.16 -0.16)">
       <use xlink:href="#DejaVuSans-48"/>
       <use x="63.623047" xlink:href="#DejaVuSans-46"/>
       <use x="95.410156" xlink:href="#DejaVuSans-53"/>
       <use x="159.033203" xlink:href="#DejaVuSans-48"/>
      </g>
     </g>
    </g>
    <g id="ytick_19">
     <g id="line2d_72">
      <path clip-path="url(#p9d88f1d26f)" d="M 72 550.408696 
L 518.4 550.408696 
" style="fill:none;stroke:#b0b0b0;stroke-linecap:square;stroke-width:0.8;"/>
     </g>
     <g id="line2d_73">
      <g>
       <use style="stroke:#000000;stroke-width:0.8;" x="72" xlink:href="#me5d79111a9" y="550.408696"/>
      </g>
     </g>
     <g id="text_30">
      <!-- 0.75 -->
      <g transform="translate(29.375 556.487446)scale(0.16 -0.16)">
       <use xlink:href="#DejaVuSans-48"/>
       <use x="63.623047" xlink:href="#DejaVuSans-46"/>
       <use x="95.410156" xlink:href="#DejaVuSans-55"/>
       <use x="159.033203" xlink:href="#DejaVuSans-53"/>
      </g>
     </g>
    </g>
    <g id="ytick_20">
     <g id="line2d_74">
      <path clip-path="url(#p9d88f1d26f)" d="M 72 520.278261 
L 518.4 520.278261 
" style="fill:none;stroke:#b0b0b0;stroke-linecap:square;stroke-width:0.8;"/>
     </g>
     <g id="line2d_75">
      <g>
       <use style="stroke:#000000;stroke-width:0.8;" x="72" xlink:href="#me5d79111a9" y="520.278261"/>
      </g>
     </g>
     <g id="text_31">
      <!-- 1.00 -->
      <g transform="translate(29.375 526.357011)scale(0.16 -0.16)">
       <use xlink:href="#DejaVuSans-49"/>
       <use x="63.623047" xlink:href="#DejaVuSans-46"/>
       <use x="95.410156" xlink:href="#DejaVuSans-48"/>
       <use x="159.033203" xlink:href="#DejaVuSans-48"/>
      </g>
     </g>
    </g>
    <g id="text_32">
     <!-- Height -->
     <g transform="translate(22.0475 606.98538)rotate(-90)scale(0.16 -0.16)">
      <use xlink:href="#DejaVuSans-72"/>
      <use x="75.195312" xlink:href="#DejaVuSans-101"/>
      <use x="136.71875" xlink:href="#DejaVuSans-105"/>
      <use x="164.501953" xlink:href="#DejaVuSans-103"/>
      <use x="227.978516" xlink:href="#DejaVuSans-104"/>
      <use x="291.357422" xlink:href="#DejaVuSans-116"/>
     </g>
    </g>
   </g>
   <g id="line2d_76">
    <path clip-path="url(#p9d88f1d26f)" d="M 72 522.66475 
L 76.509091 529.544415 
L 81.018182 540.13178 
L 85.527273 553.283257 
L 90.036364 567.699869 
L 94.545455 582.13577 
L 99.054545 595.566853 
L 103.563636 607.29046 
L 108.072727 616.948904 
L 112.581818 624.489157 
L 117.090909 630.083011 
L 121.6 634.03454 
L 126.109091 636.696541 
L 130.618182 638.408716 
L 135.127273 639.461124 
L 139.636364 640.079759 
L 144.145455 640.427743 
L 148.654545 640.615142 
L 153.163636 640.711802 
L 157.672727 640.759569 
L 162.181818 640.782193 
L 166.690909 640.792465 
L 171.2 640.796936 
L 175.709091 640.798803 
L 180.218182 640.799551 
L 184.727273 640.799838 
L 189.236364 640.799944 
L 193.745455 640.799981 
L 198.254545 640.799994 
L 202.763636 640.799998 
L 207.272727 640.799999 
L 211.781818 640.8 
L 216.290909 640.8 
L 220.8 640.8 
L 225.309091 640.8 
L 229.818182 640.8 
L 234.327273 640.8 
L 238.836364 640.8 
L 243.345455 640.8 
L 247.854545 640.8 
L 252.363636 640.8 
L 256.872727 640.8 
L 261.381818 640.8 
L 265.890909 640.8 
L 270.4 640.8 
L 274.909091 640.8 
L 279.418182 640.8 
L 283.927273 640.8 
L 288.436364 640.8 
L 292.945455 640.8 
L 297.454545 640.8 
L 301.963636 640.8 
L 306.472727 640.8 
L 310.981818 640.8 
L 315.490909 640.8 
L 320 640.8 
L 324.509091 640.8 
L 329.018182 640.8 
L 333.527273 640.8 
L 338.036364 640.8 
L 342.545455 640.8 
L 347.054545 640.8 
L 351.563636 640.8 
L 356.072727 640.8 
L 360.581818 640.8 
L 365.090909 640.8 
L 369.6 640.8 
L 374.109091 640.8 
L 378.618182 640.8 
L 383.127273 640.8 
L 387.636364 640.8 
L 392.145455 640.8 
L 396.654545 640.8 
L 401.163636 640.8 
L 405.672727 640.8 
L 410.181818 640.798803 
L 414.690909 640.796936 
L 419.2 640.792465 
L 423.709091 640.782193 
L 428.218182 640.759569 
L 432.727273 640.711802 
L 437.236364 640.615142 
L 441.745455 640.427743 
L 446.254545 640.079759 
L 450.763636 639.461124 
L 455.272727 638.408716 
L 459.781818 636.696541 
L 464.290909 634.03454 
L 468.8 630.083011 
L 473.309091 624.489157 
L 477.818182 616.948904 
L 482.327273 607.29046 
L 486.836364 595.566853 
L 491.345455 582.13577 
L 495.854545 567.699869 
L 500.363636 553.283257 
L 504.872727 540.13178 
L 509.381818 529.544415 
L 513.890909 522.66475 
L 518.4 520.278261 
" style="fill:none;stroke:#0000ff;stroke-linecap:square;stroke-width:1.5;"/>
   </g>
   <g id="patch_18">
    <path d="M 72 640.8 
L 72 520.278261 
" style="fill:none;stroke:#000000;stroke-linecap:square;stroke-linejoin:miter;stroke-width:0.8;"/>
   </g>
   <g id="patch_19">
    <path d="M 518.4 640.8 
L 518.4 520.278261 
" style="fill:none;stroke:#000000;stroke-linecap:square;stroke-linejoin:miter;stroke-width:0.8;"/>
   </g>
   <g id="patch_20">
    <path d="M 72 640.8 
L 518.4 640.8 
" style="fill:none;stroke:#000000;stroke-linecap:square;stroke-linejoin:miter;stroke-width:0.8;"/>
   </g>
   <g id="patch_21">
    <path d="M 72 520.278261 
L 518.4 520.278261 
" style="fill:none;stroke:#000000;stroke-linecap:square;stroke-linejoin:miter;stroke-width:0.8;"/>
   </g>
   <g id="text_33">
    <!-- Time step  75 -->
    <g transform="translate(229.5765 514.278261)scale(0.192 -0.192)">
     <use xlink:href="#DejaVuSans-84"/>
     <use x="57.958984" xlink:href="#DejaVuSans-105"/>
     <use x="85.742188" xlink:href="#DejaVuSans-109"/>
     <use x="183.154297" xlink:href="#DejaVuSans-101"/>
     <use x="244.677734" xlink:href="#DejaVuSans-32"/>
     <use x="276.464844" xlink:href="#DejaVuSans-115"/>
     <use x="328.564453" xlink:href="#DejaVuSans-116"/>
     <use x="367.773438" xlink:href="#DejaVuSans-101"/>
     <use x="429.296875" xlink:href="#DejaVuSans-112"/>
     <use x="492.773438" xlink:href="#DejaVuSans-32"/>
     <use x="524.560547" xlink:href="#DejaVuSans-32"/>
     <use x="556.347656" xlink:href="#DejaVuSans-55"/>
     <use x="619.970703" xlink:href="#DejaVuSans-53"/>
    </g>
   </g>
  </g>
 </g>
 <defs>
  <clipPath id="p190a8791f1">
   <rect height="120.521739" width="446.4" x="72" y="86.4"/>
  </clipPath>
  <clipPath id="p71bb5d8d4b">
   <rect height="120.521739" width="446.4" x="72" y="231.026087"/>
  </clipPath>
  <clipPath id="pf92d899a83">
   <rect height="120.521739" width="446.4" x="72" y="375.652174"/>
  </clipPath>
  <clipPath id="p9d88f1d26f">
   <rect height="120.521739" width="446.4" x="72" y="520.278261"/>
  </clipPath>
 </defs>
</svg>
